<svg width="146" height="162" viewBox="0 0 146 162" fill="none" xmlns="http://www.w3.org/2000/svg">
<g clip-path="url(#clip0_7_432)">
<path d="M89.472 67.8156H62.1797V71.2944H90.2419C92.0012 71.2798 93.7341 71.7201 95.2713 72.5722C96.8084 73.4244 98.0972 74.6592 99.0116 76.156C98.7083 73.8498 97.5733 71.7322 95.8182 70.1977C94.0631 68.6632 91.8076 67.8166 89.472 67.8156Z" fill="white"/>
<path d="M67.8899 34.5418H57.0133C54.6779 34.5428 52.4225 35.3894 50.6674 36.9238C48.9123 38.4582 47.7772 40.5756 47.4737 42.8817C48.3882 41.3849 49.6771 40.15 51.2144 39.2979C52.7516 38.4458 54.4846 38.0055 56.2439 38.0201H67.8899V34.5418Z" fill="white"/>
<path d="M89.472 34.5418H71.3821V38.0201H90.2419C92.0011 38.0055 93.7339 38.4457 95.2711 39.2978C96.8082 40.1498 98.0971 41.3845 99.0116 42.8811C98.708 40.5752 97.573 38.4577 95.8179 36.9235C94.0628 35.3892 91.8074 34.5427 89.472 34.5418Z" fill="white"/>
<path d="M136.458 97.3404H104.227V100.818H137.229C138.988 100.804 140.721 101.244 142.258 102.096C143.795 102.948 145.084 104.183 145.999 105.679C145.695 103.373 144.56 101.256 142.804 99.7214C141.049 98.1873 138.793 97.341 136.458 97.3404Z" fill="white"/>
<path d="M136.458 46.5852H104.227V50.0635H137.229C138.988 50.0491 140.721 50.4895 142.258 51.3415C143.795 52.1935 145.084 53.4281 145.999 54.9246C145.695 52.6184 144.56 50.5008 142.804 48.9665C141.049 47.4322 138.793 46.5859 136.458 46.5852Z" fill="white"/>
<path d="M136.458 64.0676H104.227V67.5449H137.229C138.988 67.5306 140.722 67.9714 142.259 68.8241C143.796 69.6768 145.085 70.9123 145.999 72.4096C145.696 70.1029 144.561 67.9847 142.805 66.4499C141.05 64.9151 138.794 64.0684 136.458 64.0676Z" fill="white"/>
<path d="M136.458 80.7066H104.227V84.1833H137.229C138.988 84.1694 140.721 84.6103 142.259 85.463C143.796 86.3156 145.085 87.5509 145.999 89.0481C145.696 86.7415 144.561 84.6234 142.805 83.0887C141.05 81.554 138.794 80.7074 136.458 80.7066Z" fill="white"/>
<path d="M119.657 55.3258H104.226V58.8036H119.657V55.3258Z" fill="white"/>
<path d="M136.458 55.3254H123.153V58.8031H137.23C138.989 58.789 140.723 59.2299 142.26 60.0826C143.797 60.9353 145.086 62.1706 146 63.6679C145.697 61.361 144.562 59.2426 142.806 57.7076C141.05 56.1727 138.794 55.326 136.458 55.3254Z" fill="white"/>
<path d="M108.898 72.3858H104.226V75.8635H108.898V72.3858Z" fill="white"/>
<path d="M136.458 72.3853H112.391V75.8636H137.228C138.987 75.8492 140.72 76.2895 142.257 77.1416C143.794 77.9936 145.083 79.2282 145.998 80.7246C145.694 78.4186 144.559 76.3012 142.804 74.7669C141.049 73.2326 138.793 72.3862 136.458 72.3853Z" fill="white"/>
<path d="M125.112 89.0206H104.226V92.4994H125.112V89.0206Z" fill="white"/>
<path d="M136.458 89.0206H128.605V92.4999H137.228C138.987 92.4855 140.72 92.9258 142.257 93.778C143.794 94.6301 145.083 95.8648 145.998 97.3615C145.694 95.0554 144.559 92.9378 142.804 91.4032C141.049 89.8687 138.793 89.0219 136.458 89.0206Z" fill="white"/>
<path d="M108.898 105.657H104.226V109.135H108.898V105.657Z" fill="white"/>
<path d="M136.458 105.657H112.391V109.135H137.228C138.987 109.121 140.72 109.562 142.258 110.415C143.795 111.267 145.084 112.503 145.998 114C145.695 111.693 144.56 109.575 142.805 108.04C141.049 106.506 138.794 105.659 136.458 105.657Z" fill="white"/>
<path d="M136.458 37.844H114.384V41.3223H137.228C138.987 41.3078 140.72 41.7481 142.257 42.6002C143.794 43.4522 145.083 44.6868 145.998 46.1833C145.694 43.8773 144.559 41.7599 142.804 40.2256C141.049 38.6914 138.793 37.8449 136.458 37.844Z" fill="white"/>
<path d="M110.893 37.844H104.226V41.3223H110.893V37.844Z" fill="white"/>
<path d="M64.3981 101.087H57.0133C54.6779 101.088 52.4226 101.935 50.6676 103.469C48.9125 105.003 47.7774 107.121 47.4737 109.427C48.3879 107.929 49.6766 106.694 51.2139 105.841C52.7511 104.988 54.4843 104.548 56.2439 104.562H64.3981V101.087Z" fill="white"/>
<path d="M89.472 101.087H67.8899V104.565H90.2441C92.0036 104.55 93.7367 104.991 95.2739 105.844C96.8111 106.696 98.0997 107.932 99.0137 109.429C98.7107 107.122 97.5756 105.004 95.82 103.469C94.0644 101.934 91.8082 101.088 89.472 101.087Z" fill="white"/>
<path d="M77.4225 84.4509H57.0133C54.6779 84.452 52.4225 85.2985 50.6674 86.8329C48.9123 88.3673 47.7772 90.4848 47.4737 92.7908C48.3882 91.294 49.6771 90.0592 51.2144 89.207C52.7516 88.3549 54.4846 87.9146 56.2439 87.9292H77.4225V84.4509Z" fill="white"/>
<path d="M89.472 84.4509H80.9142V87.9292H90.2419C92.0011 87.9146 93.734 88.3549 95.2711 89.2069C96.8082 90.059 98.0971 91.2936 99.0116 92.7902C98.708 90.4843 97.573 88.3669 95.8179 86.8326C94.0628 85.2983 91.8074 84.4518 89.472 84.4509Z" fill="white"/>
<path d="M89.472 51.1782H84.2684V54.6554H90.2446C92.0041 54.6413 93.7371 55.0822 95.2743 55.9349C96.8114 56.7876 98.1001 58.0229 99.0142 59.5201C98.7111 57.2133 97.5759 55.0949 95.8202 53.5601C94.0645 52.0252 91.8082 51.1786 89.472 51.1782Z" fill="white"/>
<path d="M80.773 51.1782H57.0133C54.6778 51.1792 52.4223 52.0259 50.6672 53.5604C48.9121 55.0948 47.7771 57.2124 47.4737 59.5186C48.3878 58.0212 49.6765 56.7857 51.2138 55.933C52.7511 55.0803 54.4843 54.6395 56.2439 54.6538H80.7751L80.773 51.1782Z" fill="white"/>
<path d="M89.472 17.4829H61.8972V20.9612H90.2419C92.0011 20.9466 93.7339 21.3869 95.2711 22.2389C96.8082 23.091 98.0971 24.3257 99.0116 25.8223C98.708 23.5163 97.573 21.3989 95.8179 19.8646C94.0628 18.3303 91.8074 17.4839 89.472 17.4829Z" fill="white"/>
<path d="M75.6761 8.74015H57.0133C54.6779 8.74121 52.4225 9.5878 50.6674 11.1222C48.9123 12.6565 47.7772 14.774 47.4737 17.08C48.3879 15.5827 49.6766 14.3472 51.2139 13.4945C52.7511 12.6418 54.4843 12.201 56.2439 12.2153H75.6777L75.6761 8.74015Z" fill="white"/>
<path d="M89.472 8.74014H79.171V12.2179H90.2446C92.0038 12.2034 93.7367 12.6438 95.2738 13.4959C96.8109 14.3481 98.0997 15.5828 99.0142 17.0795C98.7106 14.7731 97.5752 12.6553 95.8195 11.121C94.0639 9.58662 91.8078 8.74043 89.472 8.74014Z" fill="white"/>
<path d="M136.458 105.657H135.369V109.135H137.228C138.987 109.121 140.72 109.562 142.258 110.415C143.795 111.267 145.084 112.503 145.998 114C145.695 111.693 144.56 109.575 142.805 108.04C141.049 106.506 138.794 105.659 136.458 105.657Z" fill="white"/>
<path d="M56.2439 96.2469H90.2419C92.0012 96.2322 93.7341 96.6725 95.2713 97.5247C96.8084 98.3768 98.0972 99.6116 99.0116 101.108C98.708 98.8025 97.573 96.685 95.8179 95.1508C94.0628 93.6165 91.8074 92.77 89.472 92.7691H57.0133C54.6777 92.7703 52.4223 93.6171 50.6672 95.1516C48.9121 96.6862 47.7771 98.8038 47.4737 101.11C48.3879 99.6128 49.6766 98.3775 51.2139 97.5251C52.7512 96.6726 54.4844 96.2322 56.2439 96.2469Z" fill="white"/>
<path d="M56.2439 79.61H90.2419C92.0012 79.5954 93.7341 80.0358 95.2713 80.8881C96.8085 81.7403 98.0972 82.9752 99.0116 84.4721C98.708 82.1661 97.573 80.0487 95.8179 78.5144C94.0628 76.9801 91.8074 76.1336 89.472 76.1327H57.0133C54.6779 76.1338 52.4226 76.9803 50.6676 78.5145C48.9125 80.0488 47.7774 82.1661 47.4737 84.4721C48.3883 82.9753 49.6772 81.7404 51.2144 80.8882C52.7516 80.036 54.4846 79.5956 56.2439 79.61Z" fill="white"/>
<path d="M56.2439 62.9746H90.2419C92.0011 62.9602 93.734 63.4005 95.2711 64.2527C96.8083 65.1048 98.0971 66.3395 99.0116 67.8362C98.7082 65.5301 97.5731 63.4126 95.818 61.8782C94.0629 60.3438 91.8075 59.4973 89.472 59.4963H57.0133C54.6779 59.4974 52.4225 60.344 50.6674 61.8784C48.9123 63.4127 47.7772 65.5302 47.4737 67.8362C48.3882 66.3394 49.6771 65.1046 51.2144 64.2525C52.7516 63.4003 54.4846 62.96 56.2439 62.9746Z" fill="white"/>
<path d="M56.2439 46.3362H90.2419C92.0011 46.3215 93.734 46.7617 95.2712 47.6137C96.8083 48.4658 98.0971 49.7005 99.0116 51.1972C98.708 48.8912 97.573 46.7738 95.8179 45.2396C94.0628 43.7053 91.8074 42.8588 89.472 42.8579H57.0133C54.6774 42.859 52.4216 43.7061 50.6665 45.2411C48.9113 46.7761 47.7765 48.8943 47.4737 51.2009C48.3877 49.7035 49.6765 48.4679 51.2137 47.6152C52.751 46.7625 54.4843 46.3218 56.2439 46.3362Z" fill="white"/>
<path d="M56.2439 29.7008H90.2419C92.0014 29.6868 93.7345 30.1276 95.2716 30.9803C96.8088 31.833 98.0974 33.0684 99.0116 34.5656C98.708 32.2596 97.573 30.1422 95.8179 28.6079C94.0628 27.0737 91.8074 26.2272 89.472 26.2263H57.0133C54.6779 26.2273 52.4225 27.0739 50.6674 28.6083C48.9123 30.1426 47.7772 32.2601 47.4737 34.5661C48.3878 33.0687 49.6764 31.8331 51.2137 30.9803C52.751 30.1275 54.4843 29.6866 56.2439 29.7008Z" fill="white"/>
<path d="M56.2439 3.47829H90.2419C92.0011 3.46381 93.7339 3.90411 95.271 4.75614C96.8081 5.60818 98.097 6.8428 99.0116 8.33933C98.708 6.03337 97.573 3.91595 95.8179 2.38167C94.0628 0.847397 91.8074 0.000929049 89.472 0H57.0133C54.6778 0.00107527 52.4223 0.847735 50.6672 2.38221C48.9121 3.91668 47.7771 6.03428 47.4737 8.34039C48.3882 6.84355 49.6771 5.60863 51.2143 4.7564C52.7515 3.90417 54.4846 3.46377 56.2439 3.47829Z" fill="white"/>
<path d="M89.472 67.8156H88.3851V71.2944H90.2435C92.0027 71.2798 93.7357 71.7201 95.2728 72.5722C96.81 73.4244 98.0988 74.6592 99.0132 76.156C98.7098 73.8496 97.5746 71.7317 95.8192 70.1971C94.0637 68.6626 91.8078 67.8162 89.472 67.8156Z" fill="white"/>
<path d="M89.472 0H88.3851V3.47829H90.2435C92.0027 3.46381 93.7355 3.90411 95.2726 4.75614C96.8097 5.60818 98.0986 6.8428 99.0132 8.33933C98.7096 6.03309 97.5743 3.91546 95.8189 2.38115C94.0634 0.846837 91.8077 0.000544196 89.472 0Z" fill="white"/>
<path d="M89.472 76.1327H88.3851V79.61H90.2435C92.0028 79.5954 93.7357 80.0358 95.2729 80.8881C96.8101 81.7403 98.0988 82.9752 99.0132 84.4721C98.7096 82.1658 97.5743 80.0482 95.8189 78.5139C94.0634 76.9796 91.8077 76.1333 89.472 76.1327Z" fill="white"/>
<path d="M99.0116 101.108C98.708 98.8025 97.573 96.685 95.8179 95.1508C94.0628 93.6165 91.8074 92.77 89.472 92.7691H88.3851V96.2469H90.2435C92.0025 96.2325 93.7351 96.6729 95.272 97.525C96.8088 98.3772 98.0973 99.6119 99.0116 101.108Z" fill="white"/>
<path d="M89.472 84.4509H88.3851V87.9292H90.2435C92.0027 87.9146 93.7355 88.3549 95.2727 89.2069C96.8098 90.059 98.0986 91.2936 99.0132 92.7902C98.7096 90.484 97.5743 88.3664 95.8189 86.8321C94.0634 85.2977 91.8077 84.4515 89.472 84.4509Z" fill="white"/>
<path d="M89.472 51.1782H88.3851V54.6554H90.2435C92.003 54.6413 93.7361 55.0822 95.2732 55.9349C96.8104 56.7876 98.099 58.0229 99.0132 59.5201C98.7101 57.2135 97.575 55.0953 95.8195 53.5604C94.0641 52.0256 91.808 51.1789 89.472 51.1782Z" fill="white"/>
<path d="M89.472 59.4963H88.3851V62.9746H90.2435C92.0027 62.9602 93.7356 63.4005 95.2727 64.2527C96.8099 65.1048 98.0987 66.3395 99.0132 67.8362C98.7097 65.5299 97.5745 63.4121 95.819 61.8777C94.0636 60.3433 91.8077 59.4969 89.472 59.4963Z" fill="white"/>
<path d="M89.472 17.4829H88.3851V20.9612H90.2435C92.0027 20.9466 93.7355 21.3869 95.2727 22.2389C96.8098 23.091 98.0986 24.3257 99.0132 25.8223C98.7096 23.516 97.5743 21.3984 95.8189 19.8641C94.0634 18.3298 91.8077 17.4835 89.472 17.4829Z" fill="white"/>
<path d="M89.472 8.74015H88.3851V12.2179H90.2435C92.0027 12.2034 93.7356 12.6438 95.2727 13.4959C96.8099 14.3481 98.0987 15.5828 99.0132 17.0795C98.7096 14.7732 97.5743 12.6556 95.8189 11.1213C94.0634 9.587 91.8077 8.74069 89.472 8.74015Z" fill="white"/>
<path d="M99.0116 109.427C98.708 107.121 97.573 105.003 95.8179 103.469C94.0628 101.935 91.8074 101.088 89.472 101.087H88.3851V104.565H90.2435C92.0025 104.55 93.7351 104.991 95.272 105.843C96.8089 106.695 98.0974 107.93 99.0116 109.427Z" fill="white"/>
<path d="M89.472 42.8605H88.3851V46.3362H90.2435C92.0027 46.3215 93.7356 46.7617 95.2728 47.6137C96.8099 48.4658 98.0987 49.7005 99.0132 51.1972C98.709 48.8914 97.5734 46.7744 95.8181 45.2407C94.0627 43.7069 91.8073 42.861 89.472 42.8605Z" fill="white"/>
<path d="M89.472 34.5418H88.3851V38.0201H90.2435C92.0027 38.0055 93.7355 38.4457 95.2727 39.2978C96.8098 40.1498 98.0986 41.3845 99.0132 42.8811C98.7096 40.5749 97.5743 38.4573 95.8189 36.9229C94.0634 35.3886 91.8077 34.5423 89.472 34.5418Z" fill="white"/>
<path d="M89.472 26.2241H88.3851V29.7008H90.2435C92.003 29.6867 93.7361 30.1276 95.2732 30.9803C96.8104 31.833 98.099 33.0684 99.0132 34.5656C98.7101 32.259 97.575 30.1408 95.8195 28.6061C94.064 27.0713 91.808 26.2248 89.472 26.2241Z" fill="white"/>
<path d="M57.0133 67.8156H58.1013V71.2944H56.2428C54.4836 71.2799 52.7507 71.7202 51.2136 72.5724C49.6765 73.4245 48.3876 74.6593 47.4732 76.156C47.7765 73.8497 48.9116 71.732 50.6668 70.1975C52.422 68.663 54.6777 67.8164 57.0133 67.8156Z" fill="white"/>
<path d="M57.0133 0H58.1013V3.47829H56.2428C54.4837 3.46386 52.7509 3.90418 51.2138 4.75621C49.6767 5.60824 48.3878 6.84283 47.4732 8.33933C47.7769 6.03332 48.912 3.9159 50.6672 2.38163C52.4224 0.847366 54.6778 0.000913298 57.0133 0Z" fill="white"/>
<path d="M57.0133 76.1327H58.1013V79.61H56.2428C54.4836 79.5955 52.7507 80.036 51.2135 80.8882C49.6764 81.7404 48.3876 82.9753 47.4732 84.4721C47.7768 82.166 48.9119 80.0485 50.6671 78.5142C52.4223 76.9799 54.6778 76.1335 57.0133 76.1327Z" fill="white"/>
<path d="M47.4737 101.108C47.7774 98.8025 48.9125 96.6851 50.6676 95.1509C52.4226 93.6166 54.6779 92.7701 57.0133 92.7691H58.1013V96.2469H56.2428C54.4837 96.2324 52.7509 96.6728 51.2139 97.5249C49.6768 98.3771 48.3881 99.6118 47.4737 101.108Z" fill="white"/>
<path d="M57.0133 84.4509H58.1013V87.9292H56.2428C54.4837 87.9147 52.7508 88.3549 51.2137 89.207C49.6766 90.059 48.3878 91.2937 47.4732 92.7902C47.7768 90.4842 48.9119 88.3667 50.6671 86.8324C52.4223 85.2981 54.6778 84.4517 57.0133 84.4509Z" fill="white"/>
<path d="M57.0133 51.1782H58.1013V54.6554H56.2428C54.4834 54.6414 52.7504 55.0823 51.2132 55.935C49.6761 56.7877 48.3874 58.023 47.4732 59.5201C47.7763 57.2137 48.9112 55.0956 50.6664 53.5608C52.4217 52.026 54.6774 51.1792 57.0133 51.1782Z" fill="white"/>
<path d="M57.0133 59.4963H58.1013V62.9746H56.2428C54.4837 62.9602 52.7508 63.4006 51.2137 64.2527C49.6765 65.1049 48.3877 66.3396 47.4732 67.8362C47.7766 65.5301 48.9117 63.4124 50.667 61.8781C52.4222 60.3437 54.6777 59.4972 57.0133 59.4963Z" fill="white"/>
<path d="M57.0133 17.4829H58.1013V20.9612H56.2428C54.4837 20.9467 52.7508 21.387 51.2137 22.239C49.6766 23.091 48.3878 24.3257 47.4732 25.8223C47.7769 23.5163 48.912 21.3988 50.6672 19.8646C52.4224 18.3303 54.6778 17.4838 57.0133 17.4829Z" fill="white"/>
<path d="M57.0133 8.74015H58.1013V12.2179H56.2428C54.4837 12.2035 52.7508 12.6439 51.2137 13.496C49.6765 14.3481 48.3877 15.5828 47.4732 17.0795C47.7769 14.7735 48.912 12.656 50.6672 11.1218C52.4224 9.58752 54.6778 8.74106 57.0133 8.74015Z" fill="white"/>
<path d="M47.4737 109.427C47.7774 107.121 48.9125 105.003 50.6676 103.469C52.4226 101.935 54.6779 101.088 57.0133 101.087H58.1013V104.565H56.2428C54.4837 104.55 52.7509 104.991 51.2138 105.843C49.6768 106.695 48.3881 107.93 47.4737 109.427Z" fill="white"/>
<path d="M57.0133 42.8605H58.1013V46.3362H56.2428C54.4837 46.3215 52.7508 46.7618 51.2136 47.6138C49.6765 48.4659 48.3877 49.7006 47.4732 51.1972C47.7775 48.8917 48.9129 46.7749 50.668 45.2412C52.4231 43.7074 54.6782 42.8613 57.0133 42.8605Z" fill="white"/>
<path d="M57.0133 34.5418H58.1013V38.0201H56.2428C54.4837 38.0056 52.7508 38.4458 51.2137 39.2979C49.6766 40.1499 48.3878 41.3846 47.4732 42.8811C47.7769 40.5751 48.912 38.4577 50.6672 36.9234C52.4224 35.3892 54.6778 34.5427 57.0133 34.5418Z" fill="white"/>
<path d="M57.0133 26.2241H58.1013V29.7008H56.2428C54.4834 29.6869 52.7504 30.1278 51.2132 30.9805C49.6761 31.8331 48.3874 33.0684 47.4732 34.5656C47.7764 32.2592 48.9114 30.1413 50.6666 28.6066C52.4218 27.0719 54.6775 26.2251 57.0133 26.2241Z" fill="white"/>
<path d="M136.458 37.844H135.369V41.3223H137.228C138.987 41.3078 140.72 41.7481 142.257 42.6002C143.794 43.4522 145.083 44.6868 145.998 46.1833C145.694 43.8773 144.559 41.7599 142.804 40.2256C141.049 38.6914 138.793 37.8449 136.458 37.844Z" fill="white"/>
<path d="M136.458 89.0206H135.369V92.5H137.228C138.987 92.4855 140.72 92.9258 142.257 93.778C143.794 94.6301 145.083 95.8648 145.998 97.3615C145.694 95.0554 144.559 92.9378 142.804 91.4032C141.049 89.8687 138.793 89.0219 136.458 89.0206Z" fill="white"/>
<path d="M136.458 97.3404H135.369V100.818H137.228C138.987 100.804 140.72 101.244 142.257 102.096C143.794 102.948 145.083 104.183 145.998 105.679C145.694 103.373 144.559 101.256 142.804 99.7218C141.049 98.1876 138.793 97.3413 136.458 97.3404Z" fill="white"/>
<path d="M136.458 55.3254H135.369V58.8031H137.228C138.987 58.789 140.72 59.2299 142.258 60.0826C143.795 60.9353 145.084 62.1706 145.998 63.6679C145.695 61.3613 144.56 59.2432 142.805 57.7083C141.049 56.1734 138.794 55.3265 136.458 55.3254Z" fill="white"/>
<path d="M136.458 46.5852H135.369V50.0635H137.228C138.987 50.0491 140.72 50.4895 142.257 51.3415C143.794 52.1935 145.083 53.4281 145.998 54.9246C145.694 52.6185 144.559 50.5011 142.804 48.9668C141.049 47.4326 138.793 46.5861 136.458 46.5852Z" fill="white"/>
<path d="M136.458 80.7066H135.369V84.1833H137.228C138.987 84.1694 140.72 84.6103 142.258 85.463C143.795 86.3156 145.084 87.5509 145.998 89.0481C145.695 86.7417 144.56 84.6238 142.804 83.0891C141.049 81.5544 138.794 80.7076 136.458 80.7066Z" fill="white"/>
<path d="M136.458 72.3853H135.369V75.8636H137.228C138.987 75.8492 140.72 76.2895 142.257 77.1416C143.794 77.9936 145.083 79.2281 145.998 80.7246C145.694 78.4186 144.559 76.3012 142.804 74.7669C141.049 73.2326 138.793 72.3862 136.458 72.3853Z" fill="white"/>
<path d="M136.458 64.0676H135.369V67.5449H137.228C138.987 67.5306 140.72 67.9714 142.258 68.8241C143.795 69.6768 145.084 70.9123 145.998 72.4096C145.695 70.1031 144.56 67.9851 142.805 66.4503C141.049 64.9155 138.794 64.0686 136.458 64.0676Z" fill="white"/>
<path d="M41.771 57.9576H8.76858C7.00916 57.9431 5.2761 58.3838 3.73905 59.2366C2.20199 60.0893 0.913607 61.3249 0 62.8224C0.302704 60.5157 1.43742 58.3974 3.1926 56.8624C4.94777 55.3274 7.20362 54.4804 9.53956 54.4793H41.77L41.771 57.9576Z" fill="white"/>
<path d="M9.53956 80.7066H41.77V84.1833H8.76858C7.00921 84.1691 5.27625 84.6099 3.73924 85.4627C2.20223 86.3154 0.913803 87.5508 0 89.0481C0.302952 86.7417 1.43779 84.6237 3.19295 83.089C4.94812 81.5543 7.20383 80.7075 9.53956 80.7066Z" fill="white"/>
<path d="M9.53956 97.3404H41.77V100.818H8.76858C7.00956 100.804 5.27684 101.244 3.73986 102.096C2.20288 102.948 0.91426 104.183 0 105.679C0.303544 103.373 1.43864 101.256 3.19375 99.7217C4.94885 98.1875 7.20423 97.3412 9.53956 97.3404Z" fill="white"/>
<path d="M41.771 71.9628H35.1173V75.4411H41.771V71.9628Z" fill="white"/>
<path d="M9.53956 71.9628H31.6235V75.4411H8.76858C7.00959 75.4263 5.27685 75.8664 3.73984 76.7183C2.20284 77.5703 0.914208 78.805 0 80.3016C0.303652 77.9957 1.43878 75.8784 3.19386 74.3443C4.94894 72.8101 7.20426 71.9637 9.53956 71.9628Z" fill="white"/>
<path d="M41.771 63.2216H22.6314V66.6994H41.771V63.2216Z" fill="white"/>
<path d="M9.53956 63.2211H19.1396V66.6993H8.76858C7.00972 66.6846 5.2771 67.1246 3.74014 67.9763C2.20317 68.8281 0.914456 70.0625 0 71.5588C0.303781 69.2531 1.43897 67.136 3.19405 65.602C4.94914 64.068 7.20439 63.2218 9.53956 63.2211Z" fill="white"/>
<path d="M41.771 89.0206H22.6314V92.4994H41.771V89.0206Z" fill="white"/>
<path d="M9.53956 89.0206H19.1396V92.4999H8.76858C7.00948 92.4852 5.27668 92.9255 3.73967 93.7777C2.20265 94.6298 0.914077 95.8647 0 97.3615C0.303394 95.0553 1.43837 92.9377 3.19345 91.4031C4.94854 89.8686 7.204 89.0218 9.53956 89.0206Z" fill="white"/>
<path d="M41.771 105.657H35.1173V109.135H41.771V105.657Z" fill="white"/>
<path d="M9.53956 105.657H31.6235V109.135H8.76858C7.00919 109.121 5.27619 109.562 3.73916 110.414C2.20214 111.267 0.913724 112.503 0 114C0.302823 111.693 1.43759 109.575 3.19276 108.04C4.94792 106.505 7.2037 105.659 9.53956 105.657Z" fill="white"/>
<path d="M9.53953 54.4793H10.6275V57.9566H8.76909C7.00966 57.9421 5.27661 58.3828 3.73955 59.2355C2.2025 60.0883 0.91411 61.3238 0.00050354 62.8213C0.303433 60.5149 1.43817 58.397 3.19321 56.8622C4.94826 55.3274 7.20384 54.4805 9.53953 54.4793Z" fill="white"/>
<path d="M9.53956 105.657H10.6275V109.135H8.76912C7.00972 109.121 5.27673 109.562 3.7397 110.414C2.20267 111.267 0.914258 112.503 0.000534058 114C0.303345 111.694 1.43803 109.575 3.19308 108.041C4.94814 106.506 7.20379 105.659 9.53956 105.657Z" fill="white"/>
<path d="M9.53956 71.9628H10.6275V75.4411H8.76912C7.01012 75.4263 5.27736 75.8664 3.74036 76.7183C2.20336 77.5703 0.914742 78.805 0.000534058 80.3016C0.304174 77.9958 1.43923 75.8786 3.1942 74.3445C4.94917 72.8103 7.20435 71.9638 9.53956 71.9628Z" fill="white"/>
<path d="M9.53956 63.2211H10.6275V66.6993H8.76912C7.01016 66.6845 5.27743 67.1244 3.74036 67.9762C2.2033 68.828 0.914502 70.0624 0 71.5588C0.303781 69.2531 1.43897 67.136 3.19405 65.602C4.94914 64.068 7.20439 63.2218 9.53956 63.2211Z" fill="white"/>
<path d="M9.53956 97.3404H10.6275V100.818H8.76912C7.0101 100.804 5.27737 101.244 3.74039 102.096C2.20341 102.948 0.914794 104.183 0.000534058 105.679C0.304066 103.373 1.43908 101.256 3.19407 99.7219C4.94906 98.1877 7.20432 97.3413 9.53956 97.3404Z" fill="white"/>
<path d="M9.53956 89.0206H10.6275V92.4999H8.76912C7.01002 92.4852 5.27719 92.9255 3.74018 93.7777C2.20317 94.6298 0.914611 95.8647 0.000534058 97.3615C0.303916 95.0554 1.43882 92.9379 3.19379 91.4033C4.94877 89.8688 7.2041 89.0219 9.53956 89.0206Z" fill="white"/>
<path d="M9.53956 80.7066H10.6275V84.1833H8.76912C7.00974 84.1691 5.27679 84.6099 3.73978 85.4627C2.20277 86.3154 0.914337 87.5508 0.000534058 89.0481C0.303474 86.7418 1.43824 84.6239 3.19329 83.0892C4.94835 81.5544 7.20392 80.7076 9.53956 80.7066Z" fill="white"/>
<path d="M22.2559 128.34L20.127 133.74C20.3743 133.747 20.6348 133.753 20.9082 133.76C21.1882 133.76 21.5592 133.76 22.0215 133.76C22.5553 133.76 22.972 133.76 23.2715 133.76C23.571 133.753 23.8509 133.747 24.1113 133.74L22.2559 128.34ZM21.7188 125.996H24.1016C25.0391 128.743 25.931 131.27 26.7773 133.574C27.6302 135.872 28.2259 137.402 28.5645 138.164C28.7077 138.509 28.8867 138.757 29.1016 138.906C29.3229 139.049 29.6159 139.121 29.9805 139.121H30.1953V140C29.3685 139.961 28.7337 139.935 28.291 139.922C27.8483 139.909 27.4772 139.902 27.1777 139.902C26.8913 139.902 26.5202 139.909 26.0645 139.922C25.6087 139.935 24.9479 139.961 24.082 140V139.121H24.2578C24.7721 139.121 25.1204 139.062 25.3027 138.945C25.485 138.828 25.5762 138.62 25.5762 138.32C25.5762 138.229 25.5632 138.122 25.5371 137.998C25.5176 137.874 25.472 137.702 25.4004 137.48L24.5996 135.117C24.2285 135.111 23.7402 135.104 23.1348 135.098C22.5293 135.085 22.1517 135.078 22.002 135.078C21.722 135.078 21.1589 135.088 20.3125 135.107C20.0065 135.114 19.7689 135.117 19.5996 135.117L19.5605 135.215C18.9225 136.771 18.6035 137.754 18.6035 138.164C18.6035 138.503 18.6979 138.747 18.8867 138.896C19.082 139.046 19.401 139.121 19.8438 139.121H20.0195V140C19.2773 139.961 18.7012 139.935 18.291 139.922C17.8809 139.909 17.5423 139.902 17.2754 139.902C17.054 139.902 16.7611 139.909 16.3965 139.922C16.0384 139.935 15.5143 139.961 14.8242 140V139.121C15.293 139.121 15.6673 139.04 15.9473 138.877C16.2272 138.714 16.4648 138.441 16.6602 138.057C16.9401 137.549 17.5716 136.13 18.5547 133.799C19.5378 131.468 20.5924 128.867 21.7188 125.996ZM31.4062 126.064C31.9596 126.097 32.4805 126.123 32.9688 126.143C33.4635 126.156 33.903 126.162 34.2871 126.162C34.6842 126.162 35.127 126.156 35.6152 126.143C36.11 126.123 36.6797 126.097 37.3242 126.064V126.943C37.2852 126.943 37.2298 126.94 37.1582 126.934C37.0866 126.927 37.0378 126.924 37.0117 126.924C36.4648 126.924 36.0938 127.087 35.8984 127.412C35.7031 127.738 35.6055 128.473 35.6055 129.619C35.6055 129.788 35.6087 130.094 35.6152 130.537C35.6217 130.98 35.625 131.341 35.625 131.621L35.6445 138.477L35.7031 138.486C36.543 138.538 37.1777 138.564 37.6074 138.564C39.2415 138.564 40.3125 138.395 40.8203 138.057C41.3281 137.718 41.7448 137.074 42.0703 136.123L42.9688 136.396C42.7669 136.989 42.5846 137.585 42.4219 138.184C42.2656 138.783 42.1289 139.388 42.0117 140C40.8594 139.961 39.7884 139.932 38.7988 139.912C37.8092 139.893 36.9043 139.883 36.084 139.883C35.2702 139.883 34.4499 139.893 33.623 139.912C32.8027 139.932 31.9857 139.961 31.1719 140V139.141H31.4453C31.7969 139.141 32.0671 139.105 32.2559 139.033C32.4447 138.962 32.5814 138.844 32.666 138.682C32.8483 138.324 32.946 136.986 32.959 134.668C32.9655 134.368 32.9688 134.141 32.9688 133.984L32.9883 131.855C32.9883 131.569 32.9915 131.195 32.998 130.732C33.0046 130.264 33.0078 129.938 33.0078 129.756C33.0078 128.584 32.9102 127.819 32.7148 127.461C32.526 127.103 32.1647 126.924 31.6309 126.924H31.4062V126.064ZM50.2441 128.34L48.1152 133.74C48.3626 133.747 48.623 133.753 48.8965 133.76C49.1764 133.76 49.5475 133.76 50.0098 133.76C50.5436 133.76 50.9603 133.76 51.2598 133.76C51.5592 133.753 51.8392 133.747 52.0996 133.74L50.2441 128.34ZM49.707 125.996H52.0898C53.0273 128.743 53.9193 131.27 54.7656 133.574C55.6185 135.872 56.2142 137.402 56.5527 138.164C56.696 138.509 56.875 138.757 57.0898 138.906C57.3112 139.049 57.6042 139.121 57.9688 139.121H58.1836V140C57.3568 139.961 56.722 139.935 56.2793 139.922C55.8366 139.909 55.4655 139.902 55.166 139.902C54.8796 139.902 54.5085 139.909 54.0527 139.922C53.597 139.935 52.9362 139.961 52.0703 140V139.121H52.2461C52.7604 139.121 53.1087 139.062 53.291 138.945C53.4733 138.828 53.5645 138.62 53.5645 138.32C53.5645 138.229 53.5514 138.122 53.5254 137.998C53.5059 137.874 53.4603 137.702 53.3887 137.48L52.5879 135.117C52.2168 135.111 51.7285 135.104 51.123 135.098C50.5176 135.085 50.14 135.078 49.9902 135.078C49.7103 135.078 49.1471 135.088 48.3008 135.107C47.9948 135.114 47.7572 135.117 47.5879 135.117L47.5488 135.215C46.9108 136.771 46.5918 137.754 46.5918 138.164C46.5918 138.503 46.6862 138.747 46.875 138.896C47.0703 139.046 47.3893 139.121 47.832 139.121H48.0078V140C47.2656 139.961 46.6895 139.935 46.2793 139.922C45.8691 139.909 45.5306 139.902 45.2637 139.902C45.0423 139.902 44.7493 139.909 44.3848 139.922C44.0267 139.935 43.5026 139.961 42.8125 140V139.121C43.2812 139.121 43.6556 139.04 43.9355 138.877C44.2155 138.714 44.4531 138.441 44.6484 138.057C44.9284 137.549 45.5599 136.13 46.543 133.799C47.526 131.468 48.5807 128.867 49.707 125.996ZM68.7988 126.484V126.699C68.7988 127.174 68.8249 127.663 68.877 128.164C68.9355 128.659 69.0202 129.17 69.1309 129.697L68.1152 129.863C68.0046 129.017 67.6888 128.379 67.168 127.949C66.6536 127.52 65.944 127.305 65.0391 127.305C64.1992 127.305 63.5417 127.471 63.0664 127.803C62.5911 128.135 62.3535 128.594 62.3535 129.18C62.3535 129.57 62.4512 129.909 62.6465 130.195C62.8418 130.475 63.1445 130.723 63.5547 130.938C63.8737 131.107 64.4238 131.322 65.2051 131.582C65.9928 131.842 66.5755 132.048 66.9531 132.197C67.806 132.549 68.444 133.008 68.8672 133.574C69.2969 134.141 69.5117 134.814 69.5117 135.596C69.5117 137.015 68.9681 138.148 67.8809 138.994C66.7936 139.84 65.319 140.264 63.457 140.264C62.8451 140.264 62.2266 140.202 61.6016 140.078C60.9766 139.961 60.3678 139.788 59.7754 139.561C59.7754 139.489 59.7786 139.395 59.7852 139.277C59.7917 139.154 59.7949 139.062 59.7949 139.004C59.7949 138.503 59.7624 137.992 59.6973 137.471C59.6387 136.95 59.5443 136.413 59.4141 135.859L60.4785 135.596C60.7259 136.794 61.123 137.63 61.6699 138.105C62.2233 138.581 63.0436 138.818 64.1309 138.818C65.0098 138.818 65.7031 138.623 66.2109 138.232C66.7188 137.842 66.9727 137.318 66.9727 136.66C66.9727 135.723 66.0775 134.938 64.2871 134.307C63.89 134.17 63.5872 134.062 63.3789 133.984C62.1419 133.522 61.2533 132.985 60.7129 132.373C60.179 131.761 59.9121 130.996 59.9121 130.078C59.9121 128.815 60.4004 127.796 61.377 127.021C62.3535 126.247 63.6458 125.859 65.2539 125.859C65.8138 125.859 66.3802 125.911 66.9531 126.016C67.5326 126.113 68.1478 126.27 68.7988 126.484ZM80.8691 126.484V126.699C80.8691 127.174 80.8952 127.663 80.9473 128.164C81.0059 128.659 81.0905 129.17 81.2012 129.697L80.1855 129.863C80.0749 129.017 79.7591 128.379 79.2383 127.949C78.724 127.52 78.0143 127.305 77.1094 127.305C76.2695 127.305 75.612 127.471 75.1367 127.803C74.6615 128.135 74.4238 128.594 74.4238 129.18C74.4238 129.57 74.5215 129.909 74.7168 130.195C74.9121 130.475 75.2148 130.723 75.625 130.938C75.944 131.107 76.4941 131.322 77.2754 131.582C78.0632 131.842 78.6458 132.048 79.0234 132.197C79.8763 132.549 80.5143 133.008 80.9375 133.574C81.3672 134.141 81.582 134.814 81.582 135.596C81.582 137.015 81.0384 138.148 79.9512 138.994C78.8639 139.84 77.3893 140.264 75.5273 140.264C74.9154 140.264 74.2969 140.202 73.6719 140.078C73.0469 139.961 72.4382 139.788 71.8457 139.561C71.8457 139.489 71.849 139.395 71.8555 139.277C71.862 139.154 71.8652 139.062 71.8652 139.004C71.8652 138.503 71.8327 137.992 71.7676 137.471C71.709 136.95 71.6146 136.413 71.4844 135.859L72.5488 135.596C72.7962 136.794 73.1934 137.63 73.7402 138.105C74.2936 138.581 75.1139 138.818 76.2012 138.818C77.0801 138.818 77.7734 138.623 78.2812 138.232C78.7891 137.842 79.043 137.318 79.043 136.66C79.043 135.723 78.1478 134.938 76.3574 134.307C75.9603 134.17 75.6576 134.062 75.4492 133.984C74.2122 133.522 73.3236 132.985 72.7832 132.373C72.2493 131.761 71.9824 130.996 71.9824 130.078C71.9824 128.815 72.4707 127.796 73.4473 127.021C74.4238 126.247 75.7161 125.859 77.3242 125.859C77.8841 125.859 78.4505 125.911 79.0234 126.016C79.6029 126.113 80.2181 126.27 80.8691 126.484ZM83.4961 126.045C84.6029 126.09 85.625 126.126 86.5625 126.152C87.5 126.172 88.3236 126.182 89.0332 126.182C90.2246 126.182 91.2305 126.172 92.0508 126.152C92.8776 126.126 93.6458 126.09 94.3555 126.045C94.3685 126.611 94.3945 127.171 94.4336 127.725C94.4727 128.271 94.528 128.825 94.5996 129.385L93.7207 129.502C93.6296 128.688 93.3594 128.138 92.9102 127.852C92.4674 127.565 91.5755 127.422 90.2344 127.422C89.9935 127.422 89.6712 127.428 89.2676 127.441C88.8704 127.448 88.3822 127.461 87.8027 127.48C87.7897 128.34 87.7767 129.163 87.7637 129.951C87.7572 130.739 87.7474 131.494 87.7344 132.217H88.0176C88.3952 132.217 88.8639 132.22 89.4238 132.227C89.9902 132.233 90.3678 132.236 90.5566 132.236C91.4551 132.236 92.0443 132.148 92.3242 131.973C92.6042 131.797 92.7539 131.462 92.7734 130.967L93.4961 131.035C93.4961 131.361 93.4863 131.771 93.4668 132.266C93.4473 132.754 93.4375 133.086 93.4375 133.262C93.4375 133.438 93.4408 133.662 93.4473 133.936C93.4603 134.209 93.4766 134.538 93.4961 134.922L92.6758 134.98V134.863C92.6758 134.303 92.513 133.926 92.1875 133.73C91.8685 133.535 91.11 133.438 89.9121 133.438H88.457H87.7148V134.561C87.7148 135.14 87.7181 135.736 87.7246 136.348C87.7311 136.953 87.7409 137.676 87.7539 138.516C88.0469 138.555 88.4115 138.587 88.8477 138.613C89.2904 138.633 89.7721 138.643 90.293 138.643C91.849 138.643 92.8841 138.48 93.3984 138.154C93.9193 137.829 94.3392 137.204 94.6582 136.279L95.5566 136.562C95.3418 137.188 95.1562 137.783 95 138.35C94.8503 138.916 94.7233 139.466 94.6191 140C93.0827 139.948 91.8587 139.912 90.9473 139.893C90.0358 139.873 89.2253 139.863 88.5156 139.863C87.7148 139.863 86.4355 139.893 84.6777 139.951C84.0723 139.971 83.6133 139.987 83.3008 140V139.141C83.3398 139.147 83.3822 139.154 83.4277 139.16C83.4798 139.16 83.5547 139.16 83.6523 139.16C84.1992 139.16 84.5703 138.994 84.7656 138.662C84.9609 138.324 85.0586 137.441 85.0586 136.016V135.039V134.141L85.0781 131.963C85.0781 131.865 85.0814 131.719 85.0879 131.523C85.1074 130.723 85.1172 130.176 85.1172 129.883C85.1172 129.59 85.1139 129.284 85.1074 128.965C85.1009 128.646 85.0977 128.47 85.0977 128.438C85.0977 127.871 84.9935 127.477 84.7852 127.256C84.5833 127.035 84.2285 126.924 83.7207 126.924H83.4961V126.045ZM105.674 135.664L108.232 129.902C108.773 128.678 109.131 127.816 109.307 127.314C109.482 126.807 109.57 126.423 109.57 126.162V126.064C109.635 126.064 109.733 126.068 109.863 126.074C110.859 126.12 111.576 126.143 112.012 126.143C112.253 126.143 112.751 126.126 113.506 126.094C113.818 126.081 114.059 126.071 114.229 126.064V126.943C113.558 126.943 113.112 127.028 112.891 127.197C112.676 127.367 112.568 127.721 112.568 128.262C112.568 128.522 112.581 128.958 112.607 129.57C112.633 130.176 112.669 130.84 112.715 131.562L112.852 133.936C112.962 135.667 113.044 136.816 113.096 137.383C113.148 137.943 113.2 138.314 113.252 138.496C113.304 138.698 113.438 138.854 113.652 138.965C113.867 139.069 114.147 139.121 114.492 139.121H114.736L114.727 140C114.173 139.967 113.636 139.945 113.115 139.932C112.594 139.912 112.113 139.902 111.67 139.902C111.416 139.902 111.081 139.909 110.664 139.922C110.247 139.935 109.622 139.961 108.789 140V139.121H109.092C109.626 139.121 109.993 139.03 110.195 138.848C110.404 138.665 110.508 138.343 110.508 137.881C110.508 137.725 110.505 137.565 110.498 137.402C110.498 137.233 110.488 137.018 110.469 136.758L110.068 128.965L106.533 136.963C106.195 137.731 105.957 138.317 105.82 138.721C105.684 139.118 105.579 139.499 105.508 139.863H104.453C104.395 139.596 104.313 139.31 104.209 139.004C104.105 138.698 103.945 138.291 103.73 137.783L100.156 129.199C99.9674 131.309 99.821 133.079 99.7168 134.512C99.6191 135.944 99.5703 136.914 99.5703 137.422C99.5703 138.118 99.6647 138.577 99.8535 138.799C100.042 139.014 100.417 139.121 100.977 139.121H101.25V140C100.612 139.961 100.091 139.935 99.6875 139.922C99.2904 139.909 98.9453 139.902 98.6523 139.902C98.4961 139.902 98.2715 139.909 97.9785 139.922C97.6921 139.928 97.1126 139.954 96.2402 140L96.2305 139.121C96.2435 139.121 96.2663 139.124 96.2988 139.131C96.4681 139.15 96.5853 139.16 96.6504 139.16C97.5098 139.16 98.0339 137.962 98.2227 135.566C98.2747 134.915 98.3171 134.401 98.3496 134.023L98.5742 131.68C98.6523 130.755 98.7142 129.984 98.7598 129.365C98.8053 128.747 98.8281 128.353 98.8281 128.184C98.8281 127.702 98.7337 127.376 98.5449 127.207C98.3626 127.031 98.0046 126.943 97.4707 126.943H97.2168V126.064C97.6335 126.09 98.0339 126.11 98.418 126.123C98.8086 126.136 99.1667 126.143 99.4922 126.143C99.7526 126.143 100.299 126.126 101.133 126.094C101.471 126.081 101.738 126.071 101.934 126.064V126.143C101.934 126.65 102.695 128.685 104.219 132.246C104.831 133.678 105.316 134.818 105.674 135.664ZM122.373 128.34L120.244 133.74C120.492 133.747 120.752 133.753 121.025 133.76C121.305 133.76 121.676 133.76 122.139 133.76C122.673 133.76 123.089 133.76 123.389 133.76C123.688 133.753 123.968 133.747 124.229 133.74L122.373 128.34ZM121.836 125.996H124.219C125.156 128.743 126.048 131.27 126.895 133.574C127.747 135.872 128.343 137.402 128.682 138.164C128.825 138.509 129.004 138.757 129.219 138.906C129.44 139.049 129.733 139.121 130.098 139.121H130.312V140C129.486 139.961 128.851 139.935 128.408 139.922C127.965 139.909 127.594 139.902 127.295 139.902C127.008 139.902 126.637 139.909 126.182 139.922C125.726 139.935 125.065 139.961 124.199 140V139.121H124.375C124.889 139.121 125.238 139.062 125.42 138.945C125.602 138.828 125.693 138.62 125.693 138.32C125.693 138.229 125.68 138.122 125.654 137.998C125.635 137.874 125.589 137.702 125.518 137.48L124.717 135.117C124.346 135.111 123.857 135.104 123.252 135.098C122.646 135.085 122.269 135.078 122.119 135.078C121.839 135.078 121.276 135.088 120.43 135.107C120.124 135.114 119.886 135.117 119.717 135.117L119.678 135.215C119.04 136.771 118.721 137.754 118.721 138.164C118.721 138.503 118.815 138.747 119.004 138.896C119.199 139.046 119.518 139.121 119.961 139.121H120.137V140C119.395 139.961 118.818 139.935 118.408 139.922C117.998 139.909 117.66 139.902 117.393 139.902C117.171 139.902 116.878 139.909 116.514 139.922C116.156 139.935 115.632 139.961 114.941 140V139.121C115.41 139.121 115.785 139.04 116.064 138.877C116.344 138.714 116.582 138.441 116.777 138.057C117.057 137.549 117.689 136.13 118.672 133.799C119.655 131.468 120.71 128.867 121.836 125.996Z" fill="white"/>
<path d="M31.176 150.914H33.206L36.118 158.474L36.16 158.488L38.918 150.914H40.878V160H39.688V152.314H39.618L36.692 160H35.474L32.464 152.314H32.394V160H31.176V150.914ZM45.2366 160.14C44.5926 160.14 44.0933 160.079 43.7386 159.958C43.3933 159.837 43.1413 159.622 42.9826 159.314C42.8333 159.006 42.7586 158.563 42.7586 157.984C42.7586 157.471 42.8286 157.074 42.9686 156.794C43.1179 156.505 43.3653 156.299 43.7106 156.178C44.0653 156.057 44.5646 155.996 45.2086 155.996H47.2386V154.918C47.2386 154.666 47.1873 154.475 47.0846 154.344C46.9913 154.204 46.8279 154.106 46.5946 154.05C46.3706 153.994 46.0393 153.966 45.6006 153.966C44.9006 153.966 44.1259 154.022 43.2766 154.134V153.21C44.2006 153.126 45.0359 153.084 45.7826 153.084C46.5666 153.084 47.1453 153.145 47.5186 153.266C47.8919 153.378 48.1486 153.579 48.2886 153.868C48.4286 154.157 48.4986 154.605 48.4986 155.212V160H47.2806V159.356C47.1779 159.879 46.4966 160.14 45.2366 160.14ZM45.4466 159.314C45.9039 159.314 46.2913 159.281 46.6086 159.216C47.0286 159.132 47.2386 158.936 47.2386 158.628V156.78H45.2926C44.8913 156.78 44.6019 156.813 44.4246 156.878C44.2473 156.934 44.1306 157.046 44.0746 157.214C44.0186 157.382 43.9906 157.653 43.9906 158.026C43.9906 158.362 44.0233 158.623 44.0886 158.81C44.1539 158.987 44.2706 159.118 44.4386 159.202C44.6066 159.277 44.8586 159.314 45.1946 159.314H45.4466ZM50.6838 153.224H51.8738V154.33C51.8738 154.115 51.9671 153.915 52.1538 153.728C52.3405 153.532 52.5785 153.378 52.8678 153.266C53.1571 153.145 53.4418 153.084 53.7218 153.084H54.3378V154.162H53.6378C53.0405 154.162 52.6065 154.241 52.3358 154.4C52.0745 154.549 51.9438 154.825 51.9438 155.226V160H50.6838V153.224ZM54.584 153.224H55.914L57.79 158.908H57.86L59.68 153.224H60.898L58.532 160H57.02L54.584 153.224ZM64.9285 160.14C62.8565 160.14 61.8205 159.449 61.8205 158.068V155.394C61.8205 154.573 62.0538 153.985 62.5205 153.63C62.9965 153.266 63.7618 153.084 64.8165 153.084C65.8151 153.084 66.5338 153.257 66.9725 153.602C67.4205 153.947 67.6445 154.545 67.6445 155.394V156.892H63.0945V157.914C63.0945 158.381 63.2578 158.717 63.5845 158.922C63.9111 159.127 64.4151 159.23 65.0965 159.23C65.7405 159.23 66.5011 159.118 67.3785 158.894V159.86C66.5198 160.047 65.7031 160.14 64.9285 160.14ZM66.3845 156.066V155.002C66.3845 154.591 66.2585 154.311 66.0065 154.162C65.7638 154.003 65.3438 153.924 64.7465 153.924C64.1678 153.924 63.7478 154.003 63.4865 154.162C63.2251 154.311 63.0945 154.591 63.0945 155.002V156.066H66.3845ZM69.5647 150.2H70.8247V160H69.5647V150.2ZM80.2265 160.14C79.7972 160.14 79.4145 160.121 79.0785 160.084C78.7519 160.047 78.4065 159.977 78.0425 159.874C77.6319 159.762 77.2865 159.622 77.0065 159.454C76.7265 159.277 76.4979 159.039 76.3205 158.74C76.1339 158.423 76.0405 158.068 76.0405 157.676V153.378C76.0405 152.855 76.1759 152.407 76.4465 152.034C76.7172 151.661 77.0905 151.39 77.5665 151.222C78.0239 151.063 78.4579 150.951 78.8685 150.886C79.2885 150.811 79.7412 150.774 80.2265 150.774C81.3839 150.774 82.4292 150.849 83.3625 150.998V152.048C83.0079 151.964 82.4992 151.889 81.8365 151.824C81.1832 151.749 80.6559 151.712 80.2545 151.712C78.3412 151.712 77.3845 152.263 77.3845 153.364V157.648C77.3845 157.947 77.4732 158.208 77.6505 158.432C77.8372 158.656 78.0892 158.819 78.4065 158.922C78.7052 159.034 79.0039 159.113 79.3025 159.16C79.6012 159.197 79.9372 159.216 80.3105 159.216C80.9359 159.216 81.6032 159.132 82.3125 158.964V155.786H80.1845V154.834H83.5725V159.72C82.3592 160 81.2439 160.14 80.2265 160.14ZM85.5608 153.224H86.7508V154.33C86.7508 154.115 86.8441 153.915 87.0308 153.728C87.2174 153.532 87.4554 153.378 87.7448 153.266C88.0341 153.145 88.3188 153.084 88.5988 153.084H89.2148V154.162H88.5148C87.9174 154.162 87.4834 154.241 87.2128 154.4C86.9514 154.549 86.8208 154.825 86.8208 155.226V160H85.5608V153.224ZM93.339 160.14C92.7416 160.14 92.2936 160.117 91.995 160.07C91.6963 160.033 91.3976 159.944 91.099 159.804C90.791 159.664 90.567 159.44 90.427 159.132C90.287 158.815 90.217 158.39 90.217 157.858V155.506C90.217 155.086 90.2683 154.717 90.371 154.4C90.4736 154.083 90.609 153.835 90.777 153.658C90.917 153.499 91.127 153.378 91.407 153.294C91.6963 153.201 91.9903 153.14 92.289 153.112C92.625 153.093 92.975 153.084 93.339 153.084C93.8243 153.084 94.1883 153.098 94.431 153.126C94.683 153.145 94.949 153.191 95.229 153.266C95.5183 153.35 95.7423 153.476 95.901 153.644C96.0596 153.812 96.195 154.055 96.307 154.372C96.4096 154.699 96.461 155.077 96.461 155.506V157.858C96.461 158.651 96.279 159.23 95.915 159.594C95.7656 159.743 95.551 159.86 95.271 159.944C94.991 160.028 94.7016 160.084 94.403 160.112C94.0483 160.131 93.6936 160.14 93.339 160.14ZM93.339 159.314C93.731 159.314 94.0156 159.305 94.193 159.286C94.3703 159.267 94.543 159.216 94.711 159.132C94.879 159.057 94.9956 158.936 95.061 158.768C95.1356 158.591 95.173 158.348 95.173 158.04V155.296C95.173 154.876 95.1216 154.573 95.019 154.386C94.9163 154.19 94.739 154.064 94.487 154.008C94.2443 153.943 93.8616 153.91 93.339 153.91C92.8163 153.91 92.429 153.943 92.177 154.008C91.9343 154.064 91.7616 154.19 91.659 154.386C91.5563 154.573 91.505 154.876 91.505 155.296V158.04C91.505 158.348 91.5376 158.591 91.603 158.768C91.6776 158.936 91.799 159.057 91.967 159.132C92.135 159.216 92.3076 159.267 92.485 159.286C92.6623 159.305 92.947 159.314 93.339 159.314ZM100.778 160.14C99.91 160.14 99.2987 159.986 98.944 159.678C98.5987 159.361 98.426 158.866 98.426 158.194V153.224H99.686V158.124C99.686 158.301 99.7 158.446 99.728 158.558C99.7653 158.661 99.826 158.768 99.91 158.88C100.078 159.123 100.489 159.244 101.142 159.244C101.833 159.244 102.318 159.179 102.598 159.048C102.869 158.917 103.004 158.679 103.004 158.334V153.224H104.264V160H103.004V159.174C102.883 159.818 102.141 160.14 100.778 160.14ZM106.451 153.224H107.697V153.952H107.711C107.814 153.373 108.584 153.084 110.021 153.084C110.88 153.084 111.529 153.266 111.967 153.63C112.406 153.985 112.625 154.442 112.625 155.002V157.788C112.625 158.189 112.565 158.539 112.443 158.838C112.331 159.137 112.182 159.37 111.995 159.538C111.827 159.697 111.594 159.823 111.295 159.916C111.006 160.009 110.717 160.07 110.427 160.098C110.166 160.126 109.849 160.14 109.475 160.14C109.065 160.14 108.687 160.093 108.341 160C108.005 159.897 107.795 159.753 107.711 159.566V162.912H106.451V153.224ZM109.503 159.286C109.989 159.286 110.357 159.253 110.609 159.188C110.871 159.113 111.057 158.983 111.169 158.796C111.281 158.609 111.337 158.325 111.337 157.942V155.45C111.337 155.03 111.281 154.717 111.169 154.512C111.057 154.307 110.871 154.171 110.609 154.106C110.357 154.031 109.984 153.994 109.489 153.994C108.995 153.994 108.626 154.031 108.383 154.106C108.141 154.171 107.968 154.307 107.865 154.512C107.763 154.708 107.711 155.021 107.711 155.45V157.942C107.711 158.325 107.763 158.609 107.865 158.796C107.977 158.983 108.159 159.113 108.411 159.188C108.663 159.253 109.027 159.286 109.503 159.286Z" fill="#CFDFFF"/>
</g>
<defs>
<clipPath id="clip0_7_432">
<rect width="146" height="162" fill="white"/>
</clipPath>
</defs>
</svg>
