<svg width="184" height="156" viewBox="0 0 184 156" fill="none" xmlns="http://www.w3.org/2000/svg">
<g clip-path="url(#clip0_155_8545)">
<path d="M170.512 148.85H10.3012L10.1714 148.696C10.0978 148.608 2.89571 139.862 10.1465 129.455C17.3761 119.081 18.7895 114.952 14.9609 105.67C14.2963 104.055 13.4474 102.306 12.5506 100.456C8.04018 91.1444 2.4265 79.5555 12.723 70.627C13.5433 69.9155 14.3428 69.2237 15.1218 68.5516C25.6318 59.4796 32.5756 53.4871 35.2336 42.7906C36.3222 38.4116 38.6961 32.1448 43.8291 27.1591C48.6643 22.4604 54.7286 20.0781 61.8501 20.0781C67.3937 20.0781 73.5365 21.56 80.1045 24.4828C99.5047 33.1123 106.359 35.6213 114.393 35.6213C117.066 35.6213 119.913 35.3564 123.643 34.9863C125.136 34.8375 126.667 34.762 128.192 34.762C137.959 34.762 146.432 37.7492 151.439 42.9579C155.404 47.0826 157.271 52.5077 156.989 59.0831C156.819 63.0395 156.549 66.3928 156.31 69.3513C155.343 81.3686 154.981 85.8659 163.983 93.6123C177.033 104.848 185.633 125.204 170.64 148.651L170.512 148.85ZM10.7146 147.985H170.036C184.554 125.088 176.153 105.233 163.416 94.2694C154.081 86.2329 154.48 81.2723 155.444 69.2842C155.682 66.3332 155.951 62.9883 156.121 59.0473C156.393 52.7175 154.607 47.5061 150.812 43.558C145.968 38.5189 137.723 35.6292 128.192 35.6292C126.696 35.6292 125.194 35.7034 123.729 35.85C119.974 36.2245 117.106 36.489 114.393 36.489C106.196 36.489 99.2819 33.9632 79.7505 25.2732C73.2919 22.4003 67.2688 20.9458 61.8478 20.9458C57.088 20.9458 41.1623 22.5354 36.0763 43.0003C33.3518 53.9636 26.3257 60.028 15.6902 69.2078C14.9113 69.8799 14.1122 70.5708 13.2928 71.2805C3.49651 79.7749 8.95069 91.034 13.3326 100.08C14.2347 101.943 15.0872 103.701 15.7638 105.342C19.9437 115.475 17.8652 119.896 10.8599 129.949C4.50095 139.076 9.8231 146.808 10.7146 147.985Z" fill="#E6FBFA"/>
<path d="M13.6379 148.418C13.6379 148.418 6.76547 140.28 13.6379 130.416C20.5104 120.552 22.1608 116.471 18.3119 107.144C14.4629 97.8161 4.43537 83.9774 16.0469 73.9083C27.6584 63.8392 35.0546 58.0953 37.8308 46.9206C41.4565 32.3303 54.5452 18.0831 80.4155 29.5904C106.286 41.0976 108.76 41.0976 122.507 39.7279C136.254 38.3582 154.947 43.2993 154.123 62.4735C153.298 81.6477 149.999 86.5548 160.996 96.0207C171.993 105.487 182.44 124.774 167.319 148.419L13.6379 148.418Z" fill="#E6FBFA"/>
<path d="M73.7376 64.2384C73.7376 64.2384 67.1186 104.965 92.405 104.965C117.691 104.965 111.779 62.6519 111.779 62.6519L74.5165 64.2384" fill="#814C4A"/>
<g opacity="0.2">
<path d="M76.1724 69.9761C76.1724 69.9761 76.1688 70.4176 76.1622 71.1939C76.1555 71.9702 76.1817 73.0723 76.2233 74.3935C76.265 75.7147 76.3563 77.2535 76.506 78.8935C76.5747 79.7144 76.6832 80.5587 76.7865 81.4153C76.9017 82.2706 77.0279 83.1374 77.1954 83.9972C77.3425 84.8595 77.5308 85.7149 77.7355 86.5503C77.8343 86.9689 77.9571 87.3769 78.0603 87.7867C78.1737 88.1938 78.3013 88.5895 78.4183 88.9789C78.553 89.3657 78.685 89.7452 78.8144 90.1173C78.9575 90.4833 79.0904 90.8463 79.234 91.1921C79.387 91.535 79.5347 91.8681 79.6771 92.1913C79.8339 92.507 79.9872 92.8139 80.1303 93.1071C80.4529 93.6772 80.7418 94.2066 81.0399 94.6526C81.3138 95.1145 81.6159 95.4708 81.8375 95.7879C82.3217 96.3867 82.6088 96.7297 82.6088 96.7297L82.3718 96.516C82.2212 96.3725 81.9801 96.18 81.7099 95.8978C81.4542 95.6051 81.1046 95.2761 80.7768 94.8407C80.6106 94.6257 80.4152 94.4071 80.2415 94.1554C80.0678 93.9037 79.8871 93.6348 79.6979 93.3562C79.5255 93.0687 79.3434 92.7667 79.1591 92.4549C78.9819 92.1383 78.8193 91.8014 78.6403 91.4588C78.4732 91.1113 78.3151 90.7478 78.1458 90.38C77.9881 90.0069 77.8459 89.6192 77.6921 89.228C77.4161 88.4331 77.1361 87.6109 76.9203 86.7552C76.7045 85.8994 76.4976 85.0304 76.339 84.1499C76.1804 83.2695 76.059 82.3837 75.9517 81.5133C75.8445 80.643 75.7887 79.7793 75.7422 78.9461C75.6956 78.1128 75.6797 77.3052 75.6766 76.5409C75.6735 75.7765 75.6934 75.0545 75.7236 74.3887C75.7807 73.0564 75.9061 71.9516 75.9894 71.1802C76.0886 70.4123 76.1724 69.9761 76.1724 69.9761Z" fill="#B76A6A"/>
<path d="M79.2924 69.9761C79.2924 69.9761 79.3194 70.3881 79.3664 71.1087C79.3916 71.4672 79.4231 71.9035 79.459 72.4047C79.4949 72.9059 79.5441 73.4671 79.5919 74.0827C79.6499 74.696 79.7129 75.3605 79.7798 76.0622C79.8467 76.7638 79.9304 77.5021 80.023 78.2647C80.1005 79.0295 80.2255 79.8129 80.3305 80.6112C80.4231 81.4122 80.5844 82.2146 80.7093 83.0226C80.8449 83.8289 81.0093 84.6286 81.1582 85.419C81.3522 86.1993 81.4975 86.9777 81.6898 87.7196C81.9038 88.453 82.0678 89.1767 82.276 89.8466C82.4918 90.5147 82.6969 91.1466 82.8857 91.7295C83.1072 92.3035 83.311 92.8259 83.4914 93.2908C83.5357 93.4083 83.58 93.5209 83.6216 93.6295L83.7665 93.9338L84.0195 94.4716L84.4931 95.5048L83.868 94.5546L83.5428 94.0481C83.4843 93.9558 83.4231 93.8591 83.3593 93.7593L83.1918 93.433C82.9606 92.9848 82.6991 92.4753 82.4236 91.9158C82.1746 91.3448 81.9251 90.7174 81.661 90.0524C81.408 89.3834 81.1905 88.6623 80.9521 87.9196C80.7368 87.172 80.5379 86.3913 80.3407 85.5978C80.1794 84.7977 80.0013 83.9857 79.8533 83.1692C79.7368 82.3483 79.5835 81.5319 79.4989 80.7212C79.3956 79.9122 79.319 79.1134 79.2627 78.3389C79.19 77.5662 79.1635 76.8164 79.1342 76.1059C79.0948 75.3963 79.1045 74.7234 79.0948 74.1038C79.0875 72.7254 79.1535 71.3476 79.2924 69.9761Z" fill="#B76A6A"/>
<path d="M84.059 71.0936L84.2805 74.9238C84.347 76.0692 84.4245 77.4058 84.5074 78.8378C84.5548 79.5523 84.6044 80.2897 84.6545 81.0408C84.7045 81.7919 84.763 82.551 84.8348 83.3109C84.8946 84.0709 84.9642 84.8303 85.0466 85.5753C85.129 86.3202 85.2065 87.0541 85.3031 87.7606C85.3997 88.4671 85.5003 89.1489 85.6071 89.7944C85.7223 90.4365 85.8383 91.0423 85.9575 91.6009C86.0873 92.1551 86.2136 92.6607 86.3421 93.1071C86.4817 93.5487 86.596 93.9381 86.7236 94.245C86.8379 94.5598 86.9451 94.7996 87.0218 94.9626C87.0984 95.1255 87.1365 95.2143 87.1365 95.2143C87.1365 95.2143 87.082 95.1352 86.9806 94.986C86.8279 94.7727 86.6898 94.5495 86.5672 94.3179C86.3675 93.9616 86.1879 93.5946 86.0293 93.2184L85.748 92.5202C85.6611 92.2694 85.5706 92.0063 85.4764 91.7307C85.3922 91.4519 85.3046 91.1626 85.2136 90.8626C85.1356 90.5592 85.055 90.2444 84.9721 89.9238C84.8206 89.276 84.6686 88.5916 84.5481 87.8776C84.4276 87.1636 84.3 86.4257 84.2136 85.6698C84.1206 84.916 84.0364 84.1494 83.9699 83.382C83.9035 82.6146 83.8605 81.8454 83.8188 81.0889C83.7772 80.3325 83.7626 79.5876 83.7448 78.8661C83.7191 77.4244 83.7386 76.0785 83.7843 74.9264C83.8649 72.6232 84.059 71.0936 84.059 71.0936Z" fill="#B76A6A"/>
<path d="M108.636 69.9761L108.646 71.1939C108.658 71.9671 108.627 73.0723 108.586 74.3935C108.545 75.7147 108.453 77.2535 108.303 78.8935C108.235 79.7144 108.126 80.5587 108.023 81.4153C107.907 82.2706 107.78 83.1374 107.613 83.9972C107.466 84.8595 107.278 85.7149 107.073 86.5503C106.975 86.9689 106.851 87.3769 106.749 87.7867C106.635 88.1938 106.508 88.5895 106.39 88.9789C106.256 89.3657 106.124 89.7452 105.994 90.1173C105.851 90.4833 105.718 90.8463 105.575 91.1921C105.422 91.535 105.273 91.8681 105.13 92.1913C104.973 92.507 104.819 92.8139 104.677 93.1071C104.354 93.6772 104.065 94.2066 103.767 94.6526C103.493 95.1145 103.189 95.4708 102.97 95.7879C102.485 96.3867 102.198 96.7297 102.198 96.7297L102.436 96.516C102.585 96.3725 102.827 96.18 103.097 95.8978C103.353 95.6051 103.702 95.2761 104.03 94.8407C104.196 94.6257 104.392 94.4071 104.565 94.1554C104.738 93.9037 104.92 93.6348 105.109 93.3562C105.282 93.0687 105.464 92.7667 105.648 92.4549C105.826 92.1383 105.988 91.8014 106.166 91.4588C106.334 91.1113 106.492 90.7478 106.661 90.38C106.819 90.0069 106.961 89.6192 107.115 89.228C107.391 88.4331 107.671 87.6109 107.886 86.7552C108.101 85.8994 108.309 85.0304 108.468 84.1499C108.627 83.2695 108.748 82.3837 108.854 81.5133C108.961 80.643 109.018 79.7793 109.065 78.9461C109.113 78.1128 109.127 77.3052 109.13 76.5409C109.133 75.7765 109.113 75.0545 109.083 74.3887C109.027 73.0564 108.901 71.9516 108.817 71.1802C108.72 70.4123 108.636 69.9761 108.636 69.9761Z" fill="#B76A6A"/>
<path d="M105.517 69.9761C105.517 69.9761 105.489 70.3881 105.443 71.1087C105.417 71.4672 105.386 71.9035 105.35 72.4047C105.315 72.9059 105.264 73.4671 105.215 74.0827C105.158 74.696 105.095 75.3605 105.027 76.0622C104.96 76.7638 104.877 77.5021 104.785 78.2647C104.707 79.0295 104.583 79.8129 104.477 80.6112C104.384 81.4122 104.224 82.2146 104.098 83.0226C103.962 83.8289 103.799 84.6286 103.649 85.419C103.455 86.1993 103.31 86.9777 103.117 87.7196C102.903 88.453 102.739 89.1767 102.531 89.8466C102.315 90.5147 102.11 91.1466 101.921 91.7295C101.7 92.3035 101.496 92.8259 101.316 93.2908C101.271 93.4083 101.227 93.5209 101.185 93.6295C101.135 93.7355 101.087 93.8357 101.041 93.9338L100.788 94.4716L100.314 95.5048C100.314 95.5048 100.542 95.1595 100.939 94.5546C101.037 94.4018 101.146 94.2327 101.264 94.0481C101.323 93.9558 101.384 93.8591 101.448 93.7593L101.615 93.433C101.847 92.9848 102.108 92.4753 102.383 91.9158C102.633 91.3448 102.882 90.7174 103.146 90.0524C103.399 89.3834 103.617 88.6623 103.855 87.9196C104.07 87.172 104.268 86.3913 104.466 85.5978C104.627 84.7977 104.805 83.9857 104.951 83.1692C105.068 82.3483 105.221 81.5319 105.305 80.7212C105.408 79.9122 105.482 79.1134 105.54 78.3389C105.614 77.5662 105.64 76.8164 105.669 76.1059C105.708 75.3963 105.7 74.7234 105.708 74.1038C105.718 72.7255 105.654 71.3477 105.517 69.9761Z" fill="#B76A6A"/>
<path d="M100.75 71.0936C100.75 71.0936 100.662 72.6259 100.529 74.9238C100.462 76.0692 100.385 77.4058 100.302 78.8378C100.255 79.5523 100.205 80.2897 100.155 81.0408C100.105 81.7919 100.046 82.551 99.9742 83.3109C99.9153 84.0709 99.8453 84.8303 99.7629 85.5753C99.6804 86.3202 99.6029 87.0541 99.5063 87.7606C99.4097 88.4671 99.3087 89.1489 99.2024 89.7944C99.0872 90.4365 98.9711 91.0423 98.8519 91.6009C98.7221 92.1551 98.5963 92.6607 98.4673 93.1071C98.3273 93.5487 98.213 93.9381 98.0863 94.245C97.9711 94.5598 97.8648 94.7996 97.7877 94.9626C97.7106 95.1255 97.6733 95.2143 97.6733 95.2143C97.6733 95.2143 97.7278 95.1352 97.8284 94.986C97.9809 94.7726 98.1192 94.5494 98.2423 94.3179C98.4416 93.9615 98.6212 93.5944 98.7801 93.2184C98.8687 92.999 98.9625 92.7663 99.0615 92.5202L99.3335 91.7307C99.4171 91.4519 99.5047 91.1626 99.5963 90.8626C99.6734 90.5592 99.7544 90.2444 99.8369 89.9238C99.9888 89.276 100.14 88.5916 100.262 87.8776C100.383 87.1636 100.509 86.4257 100.595 85.6698C100.689 84.916 100.773 84.1494 100.839 83.382C100.906 82.6146 100.949 81.8454 100.991 81.0889C101.034 80.3325 101.047 79.5876 101.064 78.8661C101.09 77.4244 101.071 76.0785 101.025 74.9264C100.944 72.6232 100.75 71.0936 100.75 71.0936Z" fill="#B76A6A"/>
</g>
<path d="M96.7855 78.5876H88.0234L84.2812 93.7374L92.4054 104.965L100.528 92.8096L96.7855 78.5876Z" fill="#FFAE8A"/>
<path d="M96.7857 78.5876H88.0236L87.1113 82.2796C89.7015 84.8765 95.0835 86.5959 98.4021 84.7343L96.7857 78.5876Z" fill="#F79B77"/>
<path d="M76.8667 63.6658C76.8667 63.6658 74.2295 59.4373 72.6464 61.4473C71.0633 63.4573 73.6128 68.3035 76.8667 67.4774V63.6658Z" fill="#FFAE8A"/>
<path d="M107.945 63.6658C107.945 63.6658 110.581 59.4373 112.161 61.4473C113.742 63.4573 111.194 68.3035 107.945 67.4774V63.6658Z" fill="#FFAE8A"/>
<path d="M92.459 40.6857C74.5254 40.6857 75.9326 63.5209 76.2835 69.0868C76.6344 74.6528 80.0628 76.5674 84.5467 80.0735C89.0306 83.5795 92.459 83.2086 92.459 83.2086C92.459 83.2086 95.8884 83.5778 100.372 80.0735C104.855 76.5692 108.282 74.6541 108.632 69.0868C108.981 63.5196 110.395 40.6857 92.459 40.6857Z" fill="#FFAE8A"/>
<path opacity="0.5" d="M108.711 60.917C108.784 63.2374 108.738 65.56 108.572 67.8757C108.223 73.4434 104.795 75.3562 100.313 78.8619C95.8302 82.3675 92.3995 81.997 92.3995 81.997C92.3995 81.997 88.9702 82.3657 84.4872 78.8619C80.0042 75.358 76.5762 73.4434 76.2244 67.8757C76.2062 67.5917 76.1854 67.261 76.165 66.8923C76.2014 67.7754 76.2474 68.5208 76.2833 69.0869C76.6347 74.6542 80.0627 76.5675 84.5466 80.0735C89.0304 83.5796 92.4589 83.2086 92.4589 83.2086C92.4589 83.2086 95.8883 83.5778 100.372 80.0735C104.855 76.5692 108.282 74.6542 108.631 69.0869C108.83 66.3679 108.856 63.6392 108.711 60.917Z" fill="#FFBCA1"/>
<path d="M115.119 90.4552L98.9246 86.7213C98.9246 91.7759 93.2166 91.7614 92.7562 91.6669V91.6602L92.7398 91.6629L92.7234 91.6602V91.6669C92.2622 91.7592 86.0145 91.7737 86.0145 86.7213L70.3608 90.4552L73.6994 105.854C73.6994 105.854 69.3994 115.239 76.8895 121.877L78.2652 144.765H107.685L108.586 121.877C116.078 115.239 111.779 105.854 111.779 105.854L115.119 90.4552Z" fill="#FAC849"/>
<path d="M92.7188 93.2278V93.2199L92.7401 93.2243L92.7609 93.2199V93.2278C93.3369 93.3439 100.458 93.3603 100.545 87.0949L98.9249 86.7213C98.9249 91.7759 93.2168 91.7614 92.7564 91.6669V91.6602L92.7401 91.6629L92.7237 91.6602V91.6669C92.2624 91.7592 86.0147 91.7737 86.0147 86.7213L84.2544 87.1408C84.3882 93.3598 92.1419 93.3439 92.7188 93.2278Z" fill="#F9B212"/>
<path d="M96.9826 61.3237C96.9826 61.3237 96.8714 60.0325 97.3158 59.7751C97.7602 59.5177 101.702 59.3865 103.148 59.7751C104.595 60.1637 105.202 61.952 105.202 61.952C105.202 61.952 104.681 61.2075 102.455 60.977C100.825 60.8088 97.5386 61.582 96.9826 61.3237Z" fill="#AA6868"/>
<path d="M87.9355 61.3237C87.9355 61.3237 88.0467 60.0325 87.6023 59.7751C87.1579 59.5177 83.2159 59.3865 81.7715 59.7751C80.3271 60.1637 79.7144 61.952 79.7144 61.952C79.7144 61.952 80.2376 61.2075 82.4614 60.977C84.0941 60.8088 87.3808 61.582 87.9355 61.3237Z" fill="#AA6868"/>
<path d="M102.163 65.7071C102.163 66.6582 101.64 67.4292 100.992 67.4292C100.345 67.4292 99.8213 66.6574 99.8213 65.7071C99.8213 64.7568 100.346 63.985 100.992 63.985C101.639 63.985 102.163 64.7564 102.163 65.7071Z" fill="#111B24"/>
<path d="M85.346 65.7071C85.346 66.6582 84.8214 67.4292 84.175 67.4292C83.5285 67.4292 83.0044 66.6574 83.0044 65.7071C83.0044 64.7568 83.5285 63.985 84.175 63.985C84.8214 63.985 85.346 64.7564 85.346 65.7071Z" fill="#111B24"/>
<path d="M87.2793 74.5695C87.2793 74.5695 88.807 78.1784 92.4579 78.1784C96.1088 78.1784 97.6272 74.5695 97.6272 74.5695C97.6272 74.5695 93.3635 76.4708 87.2793 74.5695Z" fill="#F4472A"/>
<path d="M87.291 74.5941C87.291 74.5941 89.8054 76.6615 92.5259 76.6615C95.2463 76.6615 97.5689 74.5941 97.5689 74.5941C97.5689 74.5941 93.3017 76.9883 87.291 74.5941Z" fill="white"/>
<path d="M97.7721 74.4718C97.7721 74.4718 94.1735 74.251 93.4792 74.4718C93.1784 74.6069 92.8558 74.6869 92.5266 74.708C92.1971 74.6885 91.8742 74.6084 91.574 74.4718C90.8779 74.251 87.2793 74.4718 87.2793 74.4718C91.5128 76.5781 96.9918 75.2626 97.7721 74.4718Z" fill="#F4472A"/>
<path d="M86.4337 74.1958C90.0265 76.0442 94.9291 76.1701 98.4851 74.1958C98.5649 74.1517 98.4851 74.0484 98.4045 74.0938C94.8932 76.0438 90.0633 75.9202 86.513 74.0938C86.4288 74.0497 86.3499 74.1535 86.4337 74.1958Z" fill="#F4472A"/>
<path d="M90.5859 71.0938L91.239 71.3146C91.4269 71.3689 91.6311 71.4369 91.8443 71.4833C91.9497 71.508 92.0578 71.5239 92.1641 71.5433C92.2698 71.5587 92.3764 71.5667 92.4832 71.5672C92.5875 71.5741 92.6922 71.5713 92.796 71.5588C92.9001 71.5496 93.0036 71.5349 93.1061 71.5146C93.2089 71.4983 93.3051 71.4568 93.4056 71.4356C93.5012 71.4087 93.5953 71.3767 93.6874 71.3398C93.776 71.3045 93.8673 71.2828 93.9386 71.2448C94.01 71.2069 94.0813 71.1839 94.1389 71.1609C94.2563 71.1168 94.3321 71.0934 94.3321 71.0934C94.3121 71.1577 94.2885 71.2208 94.2612 71.2824C94.1962 71.4494 94.1027 71.6038 93.9847 71.739C93.9107 71.8376 93.8245 71.9266 93.7282 72.0039C93.6187 72.092 93.5009 72.1694 93.3764 72.2348C93.2377 72.3044 93.0908 72.3562 92.9391 72.3889C92.7814 72.4258 92.6193 72.4406 92.4575 72.4331C92.2975 72.4287 92.1386 72.4051 91.9843 72.3629C91.8394 72.322 91.6993 72.2662 91.566 72.1964C91.3373 72.0774 91.1325 71.9175 90.9617 71.7248C90.7903 71.5454 90.6618 71.3297 90.5859 71.0938Z" fill="#F89675"/>
<g opacity="0.1">
<path d="M84.6418 70.4323C84.6418 72.0126 83.1797 73.2932 81.3795 73.2932C79.5793 73.2932 78.1172 72.0126 78.1172 70.4323C78.1172 68.8519 79.5793 67.5709 81.3795 67.5709C83.1797 67.5709 84.6418 68.8523 84.6418 70.4323Z" fill="#F4472A"/>
<path d="M107.218 70.4323C107.218 72.0126 105.756 73.2932 103.955 73.2932C102.155 73.2932 100.693 72.0126 100.693 70.4323C100.693 68.8519 102.155 67.5709 103.955 67.5709C105.755 67.5709 107.218 68.8523 107.218 70.4323Z" fill="#F4472A"/>
</g>
<path d="M115.04 90.4552C116.961 91.2505 118.706 92.4154 120.175 93.8834C121.644 95.3514 122.809 97.0937 123.602 99.0106C126.377 105.586 133.163 125.405 132.058 129.809C130.872 134.541 107.911 143.652 107.911 143.652L104.438 137.675C104.438 137.675 118.643 127.765 121.009 125.878L111.777 105.854L115.04 90.4552Z" fill="#F4B425"/>
<path d="M70.4164 90.4552C68.4951 91.2504 66.7499 92.4153 65.2808 93.8833C63.8117 95.3514 62.6474 97.0937 61.8546 99.0106C59.0796 105.586 52.2927 125.405 53.3973 129.809C54.5842 134.541 77.5445 143.652 77.5445 143.652L81.0173 137.675C81.0173 137.675 66.8125 127.765 64.4465 125.878L73.7013 105.854L70.4164 90.4552Z" fill="#F4B425"/>
<path d="M100.443 121.572C97.3088 120.604 94.3442 119.786 92.7292 119.786C91.1133 119.786 88.1492 120.604 85.0145 121.572C83.286 122.155 81.4408 122.309 79.6392 122.019C81.8651 123.393 84.9449 123.585 88.0003 122.465C89.512 121.884 91.1101 121.558 92.7292 121.499C94.3419 121.606 95.9325 121.931 97.4572 122.465C100.57 123.511 103.592 123.393 105.817 122.019C104.016 122.309 102.171 122.155 100.443 121.572Z" fill="#F4B425"/>
<path d="M112.131 62.2858C111.462 61.7038 110.911 61.7559 110.465 62.1321C110.414 62.1562 110.372 62.1952 110.344 62.2439C109.563 63.0338 109.136 64.8049 109 65.636C108.945 65.9769 109.468 66.1239 109.524 65.7799C109.617 65.209 109.951 63.531 110.559 62.783C110.744 63.0993 110.841 63.4593 110.839 63.8255C110.837 64.1916 110.736 64.5505 110.547 64.8646C110.364 65.1626 110.834 65.4342 111.016 65.137C111.259 64.73 111.385 64.2645 111.381 63.791C111.376 63.3176 111.242 62.8544 110.992 62.4518C111.125 62.4142 111.266 62.4146 111.399 62.4528C111.533 62.4911 111.652 62.5657 111.745 62.6682C112.01 62.8961 112.395 62.5154 112.131 62.2858Z" fill="#F4885D"/>
<path d="M72.9922 62.2858C73.6604 61.7038 74.2124 61.7559 74.6581 62.1321C74.7091 62.1561 74.7513 62.1951 74.7791 62.2439C75.5598 63.0338 75.9874 64.8049 76.1225 65.636C76.1783 65.9769 75.6551 66.1239 75.5992 65.7799C75.5066 65.209 75.1726 63.531 74.5638 62.783C74.3786 63.0993 74.2821 63.4593 74.2843 63.8255C74.2864 64.1916 74.3873 64.5505 74.5762 64.8646C74.7587 65.1626 74.2891 65.4342 74.107 65.137C73.8641 64.73 73.738 64.2645 73.7423 63.791C73.7466 63.3176 73.8812 62.8543 74.1313 62.4518C73.9977 62.4138 73.8561 62.414 73.7225 62.4522C73.589 62.4905 73.4689 62.5653 73.3759 62.6682C73.1132 62.8961 72.7264 62.5154 72.9922 62.2858Z" fill="#F4885D"/>
<path d="M105.243 139.059C105.243 139.059 100.254 138.985 99.4578 139.706C98.6621 140.427 96.2735 144.828 96.6364 145.259C96.9992 145.69 102.642 144.682 104.088 144.105C105.535 143.528 107.451 142.86 107.451 142.86L105.243 139.059Z" fill="#FFAE8A"/>
<path d="M80.014 139.059C80.014 139.059 85.0034 138.985 85.7991 139.706C86.5949 140.427 88.983 144.828 88.621 145.259C88.259 145.69 82.6152 144.682 81.1682 144.105C79.7211 143.528 77.8062 142.86 77.8062 142.86L80.014 139.059Z" fill="#FFAE8A"/>
<path d="M76.1301 62.6518C76.1301 62.6518 84.7487 58.2225 87.1107 49.785C87.1107 49.785 94.1648 61.6742 108.786 62.6518C108.786 62.6518 110.191 60.7089 111.77 61.0882C111.77 61.0882 112.773 38.2482 92.4045 38.2482C72.0357 38.2482 73.7748 60.9116 73.7748 60.9116C74.7015 61.2722 75.5146 61.873 76.1301 62.6518Z" fill="#814C4A"/>
<g opacity="0.2">
<path d="M89.7622 46.108C89.7622 46.108 89.9638 46.3628 90.3355 46.7898C90.7073 47.2168 91.2416 47.8187 91.9146 48.5084C92.2438 48.859 92.6235 49.218 93.0134 49.6053C93.4033 49.9925 93.8451 50.3709 94.282 50.7798C94.7414 51.1644 95.1973 51.583 95.6962 51.9659C95.9408 52.1622 96.1876 52.3596 96.4366 52.558C96.6869 52.7527 96.9523 52.9307 97.2098 53.1179C97.4672 53.3051 97.718 53.5034 97.9829 53.6783C98.2479 53.8531 98.5146 54.0236 98.7769 54.1953C99.2962 54.5486 99.8341 54.8515 100.351 55.1535C100.861 55.4688 101.383 55.7165 101.87 55.9718L102.584 56.3378L103.269 56.6403C103.712 56.828 104.111 57.0289 104.474 57.1728L105.428 57.5314C105.957 57.742 106.259 57.8617 106.259 57.8617C106.259 57.8617 105.94 57.8074 105.38 57.697L104.371 57.4872C103.983 57.3949 103.558 57.2501 103.089 57.1039L102.358 56.8712C102.111 56.7781 101.861 56.6664 101.601 56.5586C101.049 56.3453 100.51 56.1001 99.9869 55.8243C99.4188 55.5457 98.8657 55.2378 98.3298 54.9018C98.0566 54.7296 97.7812 54.5564 97.5035 54.3821C97.2284 54.2055 96.9674 54.0059 96.6989 53.8169C96.437 53.6195 96.1672 53.4328 95.9124 53.2279C95.6577 53.023 95.4091 52.8132 95.1592 52.6097C94.9083 52.4115 94.6681 52.2001 94.4397 51.9765C94.2093 51.7601 93.9824 51.5465 93.7591 51.3358C93.3245 50.9021 92.9146 50.4738 92.5447 50.0517C92.1747 49.6295 91.8309 49.2251 91.5363 48.8329C91.2288 48.4532 90.9775 48.0823 90.7494 47.7564C90.5212 47.4305 90.3413 47.1382 90.1946 46.8914C89.9022 46.4017 89.7622 46.108 89.7622 46.108Z" fill="#B76A6A"/>
<path d="M91.8604 43.0793C91.8604 43.0793 92.7119 43.8424 94.0128 44.9286L95.0682 45.7985L96.2578 46.7497C97.0996 47.3882 97.9822 48.0832 98.9091 48.7195L99.5923 49.2114L100.287 49.6737C100.745 49.9828 101.199 50.2831 101.647 50.5599C102.09 50.8465 102.526 51.1101 102.943 51.3548C103.361 51.5994 103.751 51.8405 104.125 52.0392L105.134 52.6066C105.442 52.7642 105.71 52.9025 105.932 53.0159C106.372 53.2486 106.623 53.3904 106.623 53.3904C106.623 53.3904 106.347 53.3175 105.869 53.1753L105.004 52.9104C104.677 52.7921 104.31 52.6486 103.911 52.4878C103.712 52.4057 103.5 52.328 103.291 52.2339C103.081 52.1399 102.865 52.0312 102.642 51.9248C102.197 51.7138 101.726 51.4899 101.263 51.2161C100.794 50.9512 100.303 50.6893 99.8343 50.3736L99.1161 49.9139L98.4102 49.4242C97.9401 49.0948 97.4904 48.7402 97.0438 48.3954C96.5972 48.0505 96.1865 47.6761 95.7735 47.3356C94.976 46.6185 94.2534 45.9226 93.6756 45.2894C93.0881 44.6655 92.6371 44.11 92.3296 43.7161C92.0221 43.3222 91.8604 43.0793 91.8604 43.0793Z" fill="#B76A6A"/>
<path d="M93.1636 40.7717C94.1056 40.8235 95.0403 40.9657 95.9549 41.1965C96.3661 41.3038 96.8162 41.4045 97.2775 41.5635C97.5102 41.6379 97.7484 41.7146 97.9921 41.7935L98.7245 42.0748C99.2252 42.2594 99.721 42.504 100.229 42.7407C100.725 43.0056 101.228 43.2759 101.718 43.5691L102.427 44.0477L102.781 44.2866L103.114 44.5515C103.555 44.8838 103.971 45.2472 104.36 45.6387C104.549 45.8294 104.741 46.0118 104.918 46.1982C105.09 46.3839 105.251 46.5784 105.402 46.781C105.703 47.1305 105.974 47.5045 106.212 47.8991C106.433 48.2651 106.629 48.6056 106.799 48.9028C106.943 49.218 107.049 49.5015 107.142 49.7298C107.324 50.189 107.419 50.4509 107.419 50.4509C107.419 50.4509 107.256 50.2169 106.989 49.8084C106.856 49.6044 106.697 49.3571 106.515 49.0741C106.3 48.8091 106.06 48.5159 105.809 48.1909C105.531 47.8465 105.233 47.5185 104.917 47.2085C104.579 46.8508 104.22 46.5137 103.842 46.199C103.448 45.8509 103.036 45.5231 102.608 45.217L102.288 44.971L101.945 44.7502L101.258 44.3047C100.794 44.0146 100.316 43.7448 99.8433 43.4838C99.3559 43.2529 98.8982 42.9721 98.4215 42.7734C98.1862 42.6656 97.9554 42.5588 97.7298 42.4545C97.4994 42.3574 97.2757 42.262 97.0568 42.1693C96.62 41.9803 96.1968 41.8271 95.81 41.6712C95.0284 41.3833 94.3696 41.151 93.9017 41.0044C93.4347 40.8486 93.1636 40.7717 93.1636 40.7717Z" fill="#B76A6A"/>
<path d="M86.0725 46.108C86.0725 46.108 86.0251 46.3637 85.9014 46.8013C85.7297 47.4053 85.5238 47.9991 85.2847 48.5799C84.9514 49.4046 84.5681 50.2085 84.1371 50.9869C83.8841 51.4046 83.6569 51.8586 83.3631 52.2803C83.0817 52.7104 82.7946 53.1462 82.4801 53.5643C82.3219 53.7723 82.1677 53.983 82.006 54.1865C81.8443 54.3901 81.6723 54.5839 81.508 54.7826C81.1898 55.1884 80.8243 55.5421 80.4889 55.8967C80.1646 56.2388 79.8219 56.5631 79.4623 56.8682L78.9749 57.3013C78.8066 57.4285 78.644 57.5526 78.4876 57.6714C78.1752 57.9076 77.8903 58.1231 77.6271 58.3002C77.3555 58.4662 77.1198 58.6092 76.9253 58.7311C76.5341 58.9634 76.3081 59.0888 76.3081 59.0888C76.3081 59.0888 76.4929 58.9033 76.8216 58.5925L77.418 58.0432L78.1575 57.2987L78.5797 56.877L79.0113 56.4063C79.3081 56.0848 79.6236 55.7492 79.9275 55.3827C80.2399 55.0228 80.5563 54.6475 80.8637 54.2536L81.3356 53.6655L81.7849 53.0521C82.0981 52.6547 82.3861 52.2343 82.6679 51.8215C82.9568 51.4139 83.2187 50.9962 83.4849 50.6005C83.7313 50.1921 83.9896 49.8088 84.2129 49.4313C84.4362 49.0537 84.6538 48.7005 84.8416 48.3662C85.6046 47.0358 86.0725 46.108 86.0725 46.108Z" fill="#B76A6A"/>
<path d="M87.947 41.5652C87.947 41.5652 87.8828 41.5811 87.7663 41.6208C87.6497 41.6606 87.4809 41.7264 87.2665 41.8019C87.0565 41.8928 86.7982 41.9882 86.5133 42.1291C86.2253 42.2571 85.9147 42.4302 85.5757 42.6126C85.4034 42.6974 85.2399 42.8175 85.0627 42.9239C84.8854 43.0303 84.7002 43.1363 84.5252 43.271C84.348 43.3981 84.1632 43.5284 83.9762 43.6622L83.4291 44.1038C83.044 44.3864 82.7162 44.7599 82.3422 45.0902C81.9935 45.447 81.6537 45.8263 81.3258 46.2118C81.0223 46.6194 80.6807 46.9991 80.4095 47.4217C80.1512 47.8509 79.8398 48.2404 79.612 48.6616C79.3843 49.0829 79.1512 49.4869 78.931 49.8711L78.3945 50.9997L78.1503 51.5018C78.0772 51.6638 78.0174 51.8219 77.9589 51.9681C77.8371 52.2617 77.7307 52.5183 77.643 52.7285C77.4627 53.151 77.3506 53.3908 77.3506 53.3908C77.3506 53.3908 77.3913 53.1325 77.4777 52.6799C77.5221 52.4534 77.5792 52.1787 77.643 51.8634C77.6789 51.7067 77.7099 51.5367 77.7547 51.3614C77.8105 51.19 77.8685 51.0081 77.9292 50.8204C78.0524 50.4433 78.1822 50.0309 78.3413 49.6026C78.5283 49.1866 78.7241 48.7442 78.9416 48.2938C79.0515 48.0642 79.1746 47.8411 79.3103 47.6257C79.4405 47.4027 79.5761 47.1784 79.7152 46.9554C79.9922 46.5059 80.3435 46.0948 80.6585 45.6603C81.013 45.2571 81.3825 44.8619 81.76 44.4906C82.1398 44.1363 82.5415 43.8062 82.9629 43.5023C83.1703 43.3588 83.3648 43.2038 83.5731 43.078L84.1898 42.7221C84.5686 42.512 84.9604 42.3263 85.363 42.1662C85.7016 42.0292 86.0485 41.9136 86.4016 41.82C86.6714 41.7435 86.9454 41.6823 87.2222 41.6367C87.4618 41.5959 87.704 41.572 87.947 41.5652Z" fill="#B76A6A"/>
</g>
<path d="M75.119 57.9381L72.5142 57.9271C72.5142 57.7134 72.8411 36.5892 92.758 36.5892C112.618 36.5892 112.848 57.7196 112.848 57.9328H110.243C110.243 57.1689 110 39.1857 92.758 39.1857C85.4872 39.1857 80.3188 42.3071 77.3959 48.4652C76.026 51.4452 75.2526 54.663 75.119 57.9381Z" fill="#5D93F4"/>
<path opacity="0.5" d="M75.1189 57.9381C75.2525 54.6629 76.026 51.4452 77.3958 48.4652C80.3201 42.3071 85.4872 39.1856 92.7579 39.1856C110 39.1856 110.241 57.1689 110.243 57.9328H111.611C111.486 55.2304 110.009 38.2482 92.7531 38.2482C75.4361 38.2482 73.8885 55.2485 73.7529 57.9328L75.1189 57.9381Z" fill="#1A65D3"/>
<path d="M109.915 68.1303C107.535 70.1589 105.156 72.1873 102.777 74.2156C102.201 74.7075 102.93 75.6339 103.51 75.1389L110.648 69.0532C111.224 68.5618 110.495 67.6349 109.915 68.1303Z" fill="#5D93F4"/>
<path d="M105.502 72.8472C105.712 73.1113 105.809 73.4479 105.771 73.783C105.732 74.1181 105.562 74.4243 105.297 74.6342L103.308 76.2093C103.043 76.4191 102.706 76.5154 102.37 76.4772C102.034 76.4389 101.727 76.2692 101.516 76.0053C101.412 75.8746 101.334 75.7247 101.288 75.5642C101.242 75.4036 101.228 75.2356 101.247 75.0697C101.266 74.9038 101.318 74.7433 101.399 74.5972C101.48 74.4512 101.59 74.3226 101.721 74.2187L103.709 72.6436C103.974 72.4338 104.312 72.3373 104.648 72.3755C104.984 72.4137 105.291 72.5833 105.502 72.8472Z" fill="#1A65D3"/>
<path opacity="0.5" d="M105.502 72.8471C105.359 72.67 105.172 72.5342 104.959 72.4539C104.746 72.3735 104.515 72.3517 104.29 72.3906C104.361 72.448 104.426 72.5127 104.483 72.5835C104.587 72.7142 104.665 72.8641 104.711 73.0246C104.757 73.1851 104.771 73.3532 104.752 73.5191C104.733 73.685 104.682 73.8456 104.6 73.9916C104.519 74.1376 104.41 74.2663 104.278 74.3701L102.29 75.9456C102.121 76.0775 101.921 76.1645 101.709 76.1982C101.934 76.3817 102.216 76.4828 102.507 76.4848C102.797 76.4868 103.08 76.3896 103.308 76.2092L105.297 74.6342C105.561 74.4243 105.732 74.1181 105.77 73.783C105.809 73.4479 105.712 73.1113 105.502 72.8471Z" fill="#0952AA"/>
<path d="M74.7975 56.5648H73.817V57.07C72.8157 58.1249 72.105 60.7403 72.105 63.8083C72.105 66.8763 72.8139 69.4908 73.817 70.5462V71.0487H74.7975C76.2845 71.0487 77.4896 67.8067 77.4896 63.807C77.4896 59.8072 76.2845 56.5648 74.7975 56.5648Z" fill="#1A65D3"/>
<path d="M73.8169 56.5648C73.5632 56.5734 73.3189 56.6625 73.1195 56.8192C72.1053 57.3521 70.3433 58.9731 70.3433 63.8061C70.3433 68.1533 71.7691 69.8458 72.7939 70.5025C72.9159 70.6603 73.0703 70.7904 73.2467 70.8842C73.423 70.978 73.6174 71.0333 73.8169 71.0465C75.3039 71.0465 76.5095 67.8045 76.5095 63.8048C76.5095 59.805 75.3039 56.5648 73.8169 56.5648Z" fill="#5D93F4"/>
<path opacity="0.2" d="M74.5904 56.8722C75.2732 58.1859 75.7189 60.3297 75.7189 62.7587C75.7189 66.7576 74.5138 70.0004 73.0268 70.0004C72.8274 69.9873 72.6331 69.932 72.4567 69.8382C72.2804 69.7444 72.1262 69.6143 72.0042 69.4564C71.7919 69.3191 71.5941 69.1604 71.4141 68.9831C71.7426 69.5944 72.2163 70.1164 72.7938 70.5034C72.9158 70.6612 73.0702 70.7913 73.2466 70.8851C73.423 70.9789 73.6173 71.0342 73.8168 71.0474C75.3038 71.0474 76.5094 67.8054 76.5094 63.8057C76.5094 60.5301 75.7003 57.7659 74.5904 56.8722Z" fill="#814C4A"/>
<path opacity="0.2" d="M72.8756 58.5104L72.7928 58.8716C72.7445 59.0999 72.6789 59.4151 72.6102 59.7874C72.5801 59.9759 72.5385 60.1711 72.5079 60.3839C72.4773 60.5968 72.4374 60.8131 72.4064 61.0414C72.367 61.2658 72.3488 61.5055 72.3116 61.7413C72.2846 61.9802 72.258 62.2231 72.231 62.4659C72.2039 62.7088 72.1867 62.9552 72.1645 63.1967C72.1534 63.4396 72.1251 63.6785 72.1091 63.9125C72.0932 64.1465 72.0812 64.374 72.0617 64.5925C72.0422 64.8111 72.0351 65.0213 72.0236 65.2134C71.9824 65.6046 71.974 65.9344 71.9443 66.172C71.9146 66.4096 71.8956 66.5509 71.8956 66.5509C71.8956 66.5509 71.8362 66.4339 71.752 66.2193C71.6306 65.9205 71.5325 65.6129 71.4587 65.299C71.4144 65.103 71.363 64.8879 71.3258 64.6561C71.2886 64.4243 71.2642 64.1775 71.2403 63.92C71.2163 63.6626 71.2177 63.3932 71.2159 63.1203C71.2141 62.8475 71.2434 62.5706 71.2602 62.2933C71.2956 62.0182 71.3311 61.7427 71.3834 61.4768C71.4346 61.2182 71.4991 60.9623 71.5766 60.7103C71.6448 60.4779 71.7274 60.2499 71.8238 60.0276C71.9061 59.8332 71.9992 59.6435 72.1025 59.4593C72.2516 59.1961 72.43 58.9503 72.6342 58.7267C72.7071 58.6467 72.788 58.5742 72.8756 58.5104Z" fill="white"/>
<path d="M110.175 56.5648H111.155V57.07C112.157 58.1249 112.868 60.7403 112.868 63.8083C112.868 66.8763 112.159 69.4908 111.155 70.5462V71.0487H110.175C108.688 71.0487 107.482 67.8067 107.482 63.807C107.482 59.8072 108.688 56.5648 110.175 56.5648Z" fill="#1A65D3"/>
<path d="M111.155 56.5648C111.409 56.5735 111.653 56.6626 111.853 56.8192C112.867 57.3521 114.629 58.9731 114.629 63.8061C114.629 68.1533 113.203 69.8458 112.178 70.5025C112.056 70.6603 111.902 70.7904 111.726 70.8842C111.549 70.978 111.355 71.0333 111.155 71.0465C109.668 71.0465 108.463 67.8045 108.463 63.8048C108.463 59.805 109.668 56.5648 111.155 56.5648Z" fill="#5D93F4"/>
<path opacity="0.2" d="M110.381 56.8722C109.699 58.1859 109.253 60.3297 109.253 62.7587C109.253 66.7576 110.458 70.0004 111.945 70.0004C112.145 69.9873 112.339 69.9319 112.515 69.8381C112.692 69.7443 112.846 69.6142 112.968 69.4564C113.18 69.319 113.378 69.1604 113.558 68.9831C113.229 69.5944 112.756 70.1163 112.178 70.5034C112.056 70.6612 111.902 70.7914 111.726 70.8852C111.549 70.979 111.355 71.0343 111.155 71.0474C109.668 71.0474 108.463 67.8054 108.463 63.8057C108.463 60.5301 109.271 57.7659 110.381 56.8722Z" fill="#814C4A"/>
<path opacity="0.2" d="M112.096 58.5104C112.096 58.5104 112.126 58.6428 112.179 58.8716C112.233 59.1003 112.294 59.4151 112.361 59.7874C112.392 59.9759 112.433 60.1711 112.464 60.3839C112.495 60.5968 112.534 60.8131 112.566 61.0414C112.605 61.2658 112.623 61.5055 112.661 61.7413C112.687 61.9802 112.715 62.2231 112.74 62.4659C112.766 62.7088 112.785 62.9552 112.807 63.1967C112.818 63.4396 112.846 63.6785 112.863 63.9125C112.879 64.1465 112.891 64.374 112.91 64.5925C112.93 64.8111 112.937 65.0213 112.949 65.2134C112.989 65.6046 112.998 65.9344 113.028 66.172C113.059 66.4096 113.076 66.5509 113.076 66.5509C113.076 66.5509 113.136 66.4339 113.22 66.2193C113.342 65.9206 113.44 65.613 113.514 65.299C113.558 65.103 113.609 64.8879 113.647 64.6561C113.685 64.4243 113.708 64.1775 113.732 63.92C113.757 63.6626 113.755 63.3932 113.757 63.1203C113.758 62.8475 113.729 62.5706 113.713 62.2933C113.677 62.0182 113.642 61.7427 113.59 61.4768C113.539 61.2182 113.474 60.9623 113.397 60.7103C113.328 60.478 113.245 60.25 113.149 60.0276C113.067 59.8331 112.974 59.6434 112.871 59.4593C112.721 59.1962 112.543 58.9505 112.339 58.7267C112.266 58.6465 112.184 58.574 112.096 58.5104Z" fill="white"/>
<path d="M170.217 148.417H15.2407V156.001H170.217V148.417Z" fill="#01D4CB"/>
<path d="M177.274 150.48C177.259 151.04 177.022 151.571 176.615 151.958C176.208 152.344 175.665 152.554 175.103 152.543H10.3546C10.0748 152.556 9.79519 152.512 9.53282 152.414C9.27045 152.316 9.03071 152.166 8.82809 151.973C8.62548 151.781 8.4642 151.549 8.35401 151.292C8.24382 151.036 8.18701 150.759 8.18701 150.48C8.18701 150.201 8.24382 149.925 8.35401 149.668C8.4642 149.411 8.62548 149.179 8.82809 148.987C9.03071 148.794 9.27045 148.644 9.53282 148.546C9.79519 148.448 10.0748 148.405 10.3546 148.417H175.103C175.665 148.406 176.209 148.616 176.615 149.003C177.022 149.389 177.259 149.92 177.274 150.48Z" fill="#0AE7DD"/>
<path d="M131.079 146.592C131.079 147.076 130.885 147.541 130.542 147.883C130.198 148.225 129.732 148.418 129.246 148.417H56.2125C55.972 148.417 55.7338 148.37 55.5116 148.279C55.2893 148.187 55.0874 148.052 54.9173 147.883C54.7473 147.713 54.6123 147.512 54.5203 147.291C54.4282 147.069 54.3809 146.832 54.3809 146.592C54.3809 146.108 54.5738 145.643 54.9173 145.301C55.2607 144.958 55.7266 144.766 56.2125 144.765H129.244C129.731 144.765 130.197 144.958 130.54 145.301C130.884 145.643 131.077 146.108 131.077 146.592H131.079Z" fill="#018882"/>
<path d="M63.6431 106.68H121.816C122.737 106.68 123.62 107.045 124.272 107.694C124.923 108.343 125.289 109.223 125.289 110.142V141.903C125.289 142.821 124.923 143.702 124.272 144.351C123.621 145 122.737 145.364 121.816 145.364H63.6427C62.7215 145.364 61.8381 145 61.1867 144.351C60.5354 143.701 60.1694 142.821 60.1694 141.903V110.142C60.1694 109.224 60.5354 108.343 61.1868 107.694C61.8383 107.045 62.7218 106.68 63.6431 106.68Z" fill="#01C8BF"/>
<path d="M95.2983 125.753C95.2983 126.26 95.1476 126.755 94.8652 127.176C94.5828 127.597 94.1815 127.925 93.7119 128.119C93.2423 128.313 92.7256 128.364 92.2271 128.265C91.7287 128.166 91.2708 127.922 90.9114 127.564C90.552 127.206 90.3072 126.75 90.2081 126.253C90.1089 125.756 90.1598 125.241 90.3543 124.773C90.5488 124.305 90.8782 123.905 91.3008 123.624C91.7234 123.342 92.2202 123.192 92.7285 123.192C93.41 123.192 94.0637 123.462 94.5456 123.942C95.0275 124.422 95.2983 125.074 95.2983 125.753Z" fill="#E6FBFA"/>
<path opacity="0.6" d="M121.816 106.68H109.287C108.553 130.182 76.4579 141.251 62.1538 145.023C62.618 145.246 63.1268 145.363 63.6425 145.364H121.818C122.738 145.362 123.62 144.996 124.271 144.347C124.921 143.699 125.288 142.82 125.291 141.903V110.141C125.288 109.224 124.921 108.345 124.27 107.696C123.619 107.048 122.736 106.682 121.816 106.68Z" fill="#02B5AD"/>
<path d="M44.7395 34.4746H25.2981C24.7379 34.4746 24.1831 34.5846 23.6655 34.7983C23.1479 35.012 22.6776 35.3251 22.2815 35.72C21.8854 36.1148 21.5712 36.5835 21.3568 37.0994C21.1425 37.6152 21.0322 38.1681 21.0322 38.7265V52.4473C21.0322 53.0056 21.1425 53.5585 21.3568 54.0743C21.5712 54.5901 21.8854 55.0588 22.2815 55.4536C22.6777 55.8484 23.148 56.1616 23.6655 56.3752C24.1831 56.5888 24.7379 56.6988 25.2981 56.6987H34.7882L40.2233 60.6657V56.6987H44.7395C45.2998 56.6988 45.8545 56.5888 46.3721 56.3752C46.8898 56.1616 47.3601 55.8484 47.7562 55.4536C48.1524 55.0589 48.4667 54.5902 48.6811 54.0743C48.8955 53.5585 49.0058 53.0056 49.0058 52.4473V38.7265C49.0058 37.5988 48.5564 36.5173 47.7563 35.7199C46.9562 34.9226 45.871 34.4746 44.7395 34.4746Z" fill="#6F224C"/>
<path d="M35.7199 39.8931C35.7199 39.9784 35.703 40.0628 35.6703 40.1416C35.6375 40.2204 35.5895 40.2919 35.529 40.3522C35.4685 40.4125 35.3966 40.4603 35.3175 40.4929C35.2385 40.5255 35.1537 40.5422 35.0681 40.5422H25.1142C25.0286 40.5422 24.9438 40.5255 24.8648 40.4929C24.7857 40.4603 24.7139 40.4125 24.6533 40.3522C24.5928 40.2919 24.5448 40.2204 24.512 40.1416C24.4793 40.0628 24.4624 39.9784 24.4624 39.8931C24.4623 39.8078 24.4792 39.7233 24.5119 39.6444C24.5446 39.5656 24.5926 39.494 24.6532 39.4336C24.7137 39.3733 24.7856 39.3255 24.8647 39.2929C24.9438 39.2602 25.0286 39.2435 25.1142 39.2435H35.0681C35.1538 39.2435 35.2385 39.2602 35.3176 39.2929C35.3967 39.3255 35.4686 39.3733 35.5291 39.4336C35.5897 39.494 35.6377 39.5656 35.6704 39.6444C35.7031 39.7233 35.72 39.8078 35.7199 39.8931Z" fill="#FFF3FA"/>
<path d="M46.385 43.4354C46.3851 43.5207 46.3683 43.6052 46.3355 43.684C46.3028 43.7628 46.2548 43.8345 46.1943 43.8948C46.1337 43.9551 46.0619 44.003 45.9828 44.0356C45.9037 44.0682 45.8189 44.085 45.7333 44.0849H25.1142C25.0286 44.085 24.9438 44.0682 24.8647 44.0356C24.7856 44.003 24.7137 43.9551 24.6532 43.8948C24.5926 43.8345 24.5446 43.7628 24.5119 43.684C24.4792 43.6052 24.4623 43.5207 24.4624 43.4354C24.4624 43.3501 24.4793 43.2656 24.512 43.1869C24.5448 43.1081 24.5928 43.0365 24.6533 42.9762C24.7139 42.9159 24.7857 42.8681 24.8648 42.8355C24.9438 42.8029 25.0286 42.7862 25.1142 42.7863H45.7333C45.8188 42.7862 45.9036 42.8029 45.9827 42.8355C46.0617 42.8681 46.1336 42.9159 46.1941 42.9762C46.2546 43.0365 46.3026 43.1081 46.3354 43.1869C46.3682 43.2656 46.385 43.3501 46.385 43.4354Z" fill="#FFF3FA"/>
<path d="M46.385 46.9784C46.3851 47.0637 46.3683 47.1482 46.3355 47.227C46.3028 47.3058 46.2548 47.3774 46.1942 47.4377C46.1337 47.498 46.0618 47.5458 45.9827 47.5783C45.9036 47.6109 45.8189 47.6276 45.7333 47.6275H25.1142C25.0286 47.6276 24.9438 47.6109 24.8647 47.5783C24.7856 47.5458 24.7137 47.498 24.6532 47.4377C24.5927 47.3774 24.5446 47.3058 24.5119 47.227C24.4792 47.1482 24.4623 47.0637 24.4624 46.9784C24.4623 46.8931 24.4792 46.8086 24.5119 46.7298C24.5446 46.6509 24.5926 46.5793 24.6532 46.519C24.7137 46.4587 24.7856 46.4108 24.8647 46.3782C24.9438 46.3456 25.0286 46.3288 25.1142 46.3289H45.7333C45.8189 46.3288 45.9037 46.3456 45.9828 46.3782C46.0619 46.4108 46.1337 46.4587 46.1943 46.519C46.2548 46.5793 46.3028 46.6509 46.3355 46.7298C46.3683 46.8086 46.3851 46.8931 46.385 46.9784Z" fill="#FFF3FA"/>
<path d="M42.8303 50.5217C42.8302 50.6939 42.7614 50.859 42.6392 50.9807C42.517 51.1024 42.3513 51.1708 42.1785 51.1708H25.1142C25.0286 51.1708 24.9438 51.1541 24.8648 51.1215C24.7857 51.0889 24.7139 51.0411 24.6533 50.9808C24.5928 50.9205 24.5448 50.8489 24.512 50.7702C24.4793 50.6914 24.4624 50.6069 24.4624 50.5217C24.4624 50.4364 24.4793 50.3519 24.512 50.2732C24.5448 50.1944 24.5928 50.1228 24.6533 50.0625C24.7139 50.0022 24.7857 49.9544 24.8648 49.9218C24.9438 49.8892 25.0286 49.8725 25.1142 49.8726H42.1785C42.3514 49.8726 42.5172 49.941 42.6394 50.0628C42.7616 50.1846 42.8303 50.3494 42.8303 50.5217Z" fill="#FFF3FA"/>
<path opacity="0.1" d="M44.7394 34.4746H44.3907C44.5679 45.9434 35.5767 52.9935 28.6963 56.6987H34.788L40.2232 60.2312V56.6987H44.7394C45.2996 56.6988 45.8544 56.5888 46.372 56.3752C46.8896 56.1616 47.3599 55.8484 47.7561 55.4536C48.1523 55.0589 48.4665 54.5902 48.6809 54.0743C48.8953 53.5585 49.0057 53.0056 49.0057 52.4473V38.7265C49.0057 37.5988 48.5562 36.5173 47.7561 35.7199C46.956 34.9226 45.8709 34.4746 44.7394 34.4746Z" fill="#6F224C"/>
<path d="M40.6299 89.0549H21.5181V100.915H40.6299V89.0549Z" fill="#FAC849"/>
<path d="M21.5181 89.0549H40.6303L31.0746 97.3471L21.5181 89.0549Z" fill="#F4B425"/>
<mask id="mask0_155_8545" style="mask-type:luminance" maskUnits="userSpaceOnUse" x="21" y="89" width="20" height="12">
<path d="M40.6299 89.0549H21.5181V100.915H40.6299V89.0549Z" fill="white"/>
</mask>
<g mask="url(#mask0_155_8545)">
<path d="M21.8355 101.299L28.3078 92.7168C28.6964 92.2019 28.065 91.4318 27.6747 91.9502L21.2019 100.531C20.8133 101.047 21.4447 101.816 21.8355 101.299Z" fill="#F4B425"/>
<path d="M40.802 100.531C38.6436 97.6713 36.486 94.811 34.3292 91.9502C33.9384 91.4318 33.3061 92.2019 33.6951 92.7168C35.8535 95.5773 38.0114 98.438 40.1688 101.299C40.5587 101.817 41.191 101.047 40.802 100.531Z" fill="#F4B425"/>
</g>
<path opacity="0.1" d="M28.1816 100.915H40.6319V89.0549H34.985C36.0842 94.9565 32.2202 98.6842 28.1816 100.915Z" fill="#6F224C"/>
<path d="M144.307 69.4215H127.148C126.877 69.4216 126.609 69.4747 126.359 69.578C126.109 69.6813 125.882 69.8326 125.691 70.0234C125.5 70.2141 125.348 70.4406 125.244 70.6897C125.141 70.9389 125.088 71.206 125.088 71.4757V78.1023C125.088 78.372 125.141 78.639 125.244 78.8882C125.348 79.1374 125.5 79.3638 125.691 79.5546C125.882 79.7453 126.109 79.8967 126.359 79.9999C126.609 80.1032 126.877 80.1564 127.148 80.1564H135.616L138.241 83.3256V80.1564H144.307C144.578 80.1564 144.846 80.1032 145.096 79.9999C145.346 79.8967 145.573 79.7454 145.764 79.5546C145.956 79.3639 146.107 79.1374 146.211 78.8882C146.314 78.6391 146.368 78.372 146.368 78.1023V71.4757C146.368 71.206 146.315 70.9389 146.211 70.6896C146.108 70.4404 145.956 70.214 145.765 70.0232C145.573 69.8325 145.346 69.6811 145.096 69.5779C144.846 69.4746 144.578 69.4215 144.307 69.4215Z" fill="#FAC849"/>
<path d="M131.467 74.5962C131.467 74.8283 131.398 75.0551 131.268 75.248C131.139 75.4409 130.955 75.5912 130.74 75.6799C130.524 75.7686 130.288 75.7917 130.059 75.7463C129.831 75.701 129.621 75.5891 129.456 75.4249C129.292 75.2608 129.18 75.0516 129.134 74.824C129.089 74.5963 129.112 74.3604 129.202 74.146C129.291 73.9316 129.442 73.7483 129.635 73.6194C129.829 73.4904 130.057 73.4216 130.289 73.4216C130.444 73.4216 130.597 73.452 130.74 73.5111C130.883 73.5701 131.013 73.6566 131.123 73.7657C131.232 73.8748 131.319 74.0043 131.378 74.1468C131.437 74.2893 131.467 74.442 131.467 74.5962Z" fill="white"/>
<path d="M136.906 74.5962C136.906 74.8284 136.837 75.0554 136.707 75.2484C136.578 75.4414 136.394 75.5918 136.178 75.6806C135.963 75.7694 135.726 75.7926 135.498 75.7473C135.269 75.7019 135.059 75.5901 134.895 75.4258C134.73 75.2616 134.618 75.0524 134.572 74.8247C134.527 74.5969 134.55 74.3609 134.64 74.1463C134.729 73.9318 134.88 73.7485 135.073 73.6195C135.267 73.4905 135.495 73.4216 135.728 73.4216C136.04 73.4217 136.34 73.5455 136.561 73.7658C136.782 73.9861 136.906 74.2848 136.906 74.5962Z" fill="white"/>
<path d="M142.344 74.5962C142.343 74.8283 142.274 75.0551 142.145 75.248C142.015 75.4409 141.831 75.5912 141.616 75.6799C141.401 75.7686 141.164 75.7917 140.936 75.7463C140.707 75.701 140.498 75.5891 140.333 75.4249C140.168 75.2608 140.056 75.0516 140.011 74.824C139.965 74.5963 139.989 74.3604 140.078 74.146C140.167 73.9316 140.318 73.7483 140.512 73.6194C140.705 73.4904 140.933 73.4216 141.166 73.4216C141.321 73.4217 141.474 73.4521 141.617 73.5112C141.76 73.5702 141.89 73.6568 141.999 73.7658C142.108 73.8749 142.195 74.0044 142.254 74.1468C142.313 74.2893 142.344 74.442 142.344 74.5962Z" fill="white"/>
<path opacity="0.1" d="M144.308 69.4215H141.787C142.16 75.4613 136.209 78.5924 131.153 80.1564H135.615L138.24 83.3256V80.1564H144.307C144.577 80.1564 144.845 80.1032 145.095 79.9999C145.345 79.8967 145.572 79.7454 145.764 79.5546C145.955 79.3639 146.107 79.1374 146.21 78.8882C146.314 78.6391 146.367 78.372 146.367 78.1023V71.4757C146.367 71.206 146.314 70.939 146.21 70.6898C146.107 70.4407 145.955 70.2143 145.764 70.0235C145.573 69.8328 145.346 69.6814 145.096 69.5781C144.846 69.4748 144.578 69.4216 144.308 69.4215Z" fill="#6F224C"/>
<path d="M142.65 34.241C142.234 34.0348 141.413 34.2167 140.656 34.4688C140.433 33.6999 140.124 32.9579 139.737 32.2566C140.449 31.9007 141.155 31.4525 141.312 31.0176C141.688 29.9693 139.699 27.9871 139.699 27.9871C139.699 27.9871 137.727 26.0212 136.658 26.3802C136.218 26.5273 135.768 27.2333 135.411 27.9447C134.707 27.5591 133.963 27.2523 133.191 27.0298C133.442 26.276 133.625 25.4609 133.426 25.0427C132.947 24.0364 130.135 24.0364 130.135 24.0364C130.135 24.0364 127.344 24.0364 126.845 25.0427C126.639 25.4569 126.821 26.2742 127.073 27.0298C126.302 27.2521 125.557 27.5591 124.854 27.9451C124.497 27.236 124.047 26.5321 123.61 26.3758C122.558 26.0014 120.57 27.9835 120.57 27.9835C120.57 27.9835 118.598 29.9494 118.957 31.0136C119.105 31.4525 119.813 31.9011 120.527 32.257C120.14 32.9585 119.832 33.7006 119.609 34.4697C118.853 34.2194 118.034 34.0379 117.615 34.2357C116.606 34.7122 116.606 37.5152 116.606 37.5152C116.606 37.5152 116.606 40.2949 117.615 40.7943C118.032 41.0005 118.851 40.8186 119.609 40.566C119.832 41.3351 120.14 42.0772 120.527 42.7787C119.818 43.1346 119.109 43.5824 118.953 44.0182C118.578 45.0665 120.566 47.0482 120.566 47.0482C120.566 47.0482 122.538 49.0141 123.607 48.656C124.047 48.508 124.497 47.802 124.854 47.0906C125.558 47.4761 126.302 47.7829 127.074 48.0055C126.824 48.7589 126.641 49.5744 126.84 49.9926C127.318 50.9989 130.13 50.9989 130.13 50.9989C130.13 50.9989 132.922 50.9989 133.42 49.9926C133.627 49.5775 133.444 48.7611 133.192 48.0055C133.963 47.7829 134.707 47.476 135.411 47.0906C135.769 47.7993 136.218 48.5036 136.655 48.6595C137.707 49.0339 139.695 47.0518 139.695 47.0518C139.695 47.0518 141.668 45.0859 141.308 44.0213C141.16 43.5824 140.451 43.1342 139.737 42.7783C140.125 42.0768 140.433 41.3347 140.656 40.5656C141.412 40.8155 142.231 40.997 142.65 40.7996C143.659 40.3227 143.659 37.5205 143.659 37.5205C143.659 37.5205 143.659 34.7378 142.65 34.241ZM130.132 42.5743C129.129 42.5743 128.148 42.2777 127.313 41.722C126.479 41.1664 125.829 40.3766 125.445 39.4526C125.061 38.5286 124.96 37.5118 125.156 36.5309C125.352 35.55 125.835 34.6489 126.545 33.9417C127.254 33.2345 128.158 32.7529 129.143 32.5578C130.127 32.3626 131.147 32.4628 132.074 32.8455C133.001 33.2283 133.794 33.8764 134.351 34.708C134.909 35.5396 135.206 36.5173 135.206 37.5174C135.206 38.8582 134.671 40.1439 133.72 41.0917C132.768 42.0396 131.478 42.5721 130.132 42.5721V42.5743Z" fill="#993E70"/>
<g opacity="0.5">
<path d="M130.133 45.2674C128.594 45.2674 127.09 44.8127 125.811 43.9609C124.532 43.1091 123.535 41.8984 122.946 40.4818C122.357 39.0653 122.203 37.5066 122.503 36.0029C122.804 34.4991 123.544 33.1178 124.632 32.0336C125.72 30.9495 127.106 30.2111 128.615 29.912C130.124 29.6129 131.688 29.7664 133.109 30.3532C134.531 30.9399 135.745 31.9335 136.6 33.2084C137.455 34.4832 137.911 35.982 137.911 37.5152C137.909 39.5705 137.089 41.541 135.63 42.9944C134.172 44.4477 132.195 45.2652 130.133 45.2674ZM130.133 31.3037C128.9 31.3037 127.695 31.668 126.67 32.3505C125.645 33.0331 124.846 34.0032 124.374 35.1382C123.903 36.2732 123.779 37.5221 124.02 38.727C124.26 39.932 124.854 41.0387 125.725 41.9074C126.597 42.7761 127.708 43.3677 128.917 43.6074C130.126 43.8471 131.379 43.7241 132.518 43.2539C133.657 42.7838 134.63 41.9876 135.315 40.9662C136 39.9447 136.365 38.7437 136.365 37.5152C136.363 35.8684 135.706 34.2897 134.537 33.1252C133.369 31.9607 131.785 31.3057 130.133 31.3037Z" fill="#6F224C"/>
</g>
<path opacity="0.1" d="M123.607 48.6538C124.047 48.5058 124.497 47.7998 124.854 47.0884C125.558 47.4739 126.302 47.7807 127.074 48.0033C126.823 48.7567 126.641 49.5722 126.84 49.9904C127.317 50.9967 130.13 50.9967 130.13 50.9967C130.13 50.9967 132.921 50.9967 133.42 49.9904C133.627 49.5753 133.444 48.7589 133.192 48.0033C133.963 47.7807 134.707 47.4738 135.411 47.0884C135.769 47.7971 136.217 48.5014 136.655 48.6573C137.707 49.0318 139.695 47.0496 139.695 47.0496C139.695 47.0496 141.668 45.0837 141.308 44.0191C141.16 43.5802 140.451 43.132 139.737 42.7761C140.124 42.0746 140.432 41.3325 140.656 40.5634C141.412 40.8133 142.231 40.9948 142.649 40.7974C143.659 40.3205 143.659 37.5183 143.659 37.5183C143.659 37.5183 143.659 34.7365 142.649 34.2388C142.233 34.0326 141.413 34.2145 140.656 34.4667C140.432 33.6977 140.124 32.9557 139.737 32.2544C140.449 31.8985 141.155 31.4503 141.312 31.0154C141.688 29.9671 139.699 27.9849 139.699 27.9849C139.699 27.9849 139.49 27.7774 139.173 27.5098C138.328 30.5302 136.872 33.3463 134.894 35.7847C135.24 36.7238 135.298 37.7441 135.061 38.7161C134.824 39.6882 134.303 40.5681 133.563 41.2442C132.823 41.9204 131.899 42.3622 130.907 42.5137C129.914 42.6652 128.899 42.5196 127.99 42.0952C125.485 43.8005 122.819 45.2598 120.031 46.4526C120.327 46.8058 120.566 47.046 120.566 47.046C120.566 47.046 122.538 49.0119 123.607 48.6538Z" fill="#6F224C"/>
<path d="M53.8455 18.4205C53.5051 18.3515 53.1515 18.392 52.8357 18.5362C52.723 18.1469 52.5671 17.7713 52.3709 17.4164C52.7316 17.2362 53.0891 17.0093 53.1684 16.7889C53.3594 16.2591 52.3523 15.2545 52.3523 15.2545C52.3523 15.2545 51.3536 14.2592 50.8126 14.4407C50.5911 14.5158 50.362 14.873 50.1813 15.2333C49.825 15.0381 49.4482 14.8828 49.0576 14.7701C49.2002 14.4548 49.2415 14.1033 49.1759 13.7638C48.9336 13.2546 47.5104 13.2546 47.5104 13.2546C47.5104 13.2546 46.0979 13.2546 45.8441 13.7638C45.7746 14.103 45.8152 14.4554 45.9602 14.7701C45.5694 14.8828 45.1925 15.0383 44.8361 15.2337C44.6553 14.8743 44.4276 14.5175 44.2065 14.4389C43.6748 14.2495 42.6668 15.2527 42.6668 15.2527C42.6668 15.2527 41.6686 16.248 41.8507 16.7867C41.9251 17.0075 42.284 17.2362 42.6456 17.4164C42.4495 17.7713 42.2937 18.1469 42.1812 18.5362C41.8649 18.3939 41.5122 18.3527 41.1715 18.4183C40.6602 18.6594 40.6602 20.0786 40.6602 20.0786C40.6602 20.0786 40.6602 21.4859 41.1715 21.7389C41.5118 21.8082 41.8655 21.7677 42.1812 21.6232C42.2938 22.0127 42.4495 22.3884 42.6456 22.7435C42.2858 22.9236 41.9273 23.1506 41.848 23.3709C41.6575 23.9008 42.6642 24.905 42.6642 24.905C42.6642 24.905 43.6628 25.9007 44.2038 25.7192C44.4254 25.6441 44.6553 25.2869 44.8356 24.9266C45.1919 25.1218 45.5687 25.2771 45.9593 25.3898C45.8167 25.7049 45.7752 26.0562 45.8405 26.3957C46.0829 26.9048 47.5069 26.9048 47.5069 26.9048C47.5069 26.9048 48.919 26.9048 49.172 26.3957C49.2423 26.0567 49.2019 25.7042 49.0568 25.3898C49.4473 25.2771 49.8241 25.1218 50.1804 24.9266C50.3616 25.2856 50.5889 25.6424 50.81 25.7214C51.3417 25.9104 52.3492 24.9076 52.3492 24.9076C52.3492 24.9076 53.3483 23.9123 53.1658 23.3732C53.0909 23.1524 52.732 22.9241 52.3709 22.7439C52.5671 22.3888 52.723 22.0131 52.8357 21.6237C53.1519 21.7662 53.5047 21.8075 53.8455 21.742C54.3563 21.5005 54.3563 20.0817 54.3563 20.0817C54.3563 20.0817 54.3563 18.6736 53.8455 18.4205ZM47.5096 22.6397C47.0013 22.6397 46.5045 22.4895 46.0819 22.2081C45.6593 21.9267 45.3299 21.5267 45.1354 21.0587C44.9409 20.5907 44.89 20.0758 44.9891 19.579C45.0883 19.0822 45.333 18.6258 45.6924 18.2677C46.0518 17.9095 46.5097 17.6656 47.0082 17.5667C47.5067 17.4679 48.0234 17.5186 48.493 17.7125C48.9626 17.9063 49.3639 18.2346 49.6463 18.6558C49.9286 19.0769 50.0794 19.5721 50.0794 20.0786C50.0794 20.4151 50.0128 20.7483 49.8836 21.0591C49.7543 21.37 49.5649 21.6524 49.3261 21.8902C49.0872 22.1281 48.8037 22.3167 48.4918 22.4453C48.1798 22.5739 47.8454 22.6399 47.5078 22.6397H47.5096Z" fill="#FAC849"/>
<g opacity="0.5">
<path d="M47.5078 24.0046C46.729 24.0046 45.9676 23.7744 45.32 23.3432C44.6724 22.9119 44.1676 22.299 43.8696 21.5818C43.5715 20.8647 43.4935 20.0756 43.6455 19.3143C43.7974 18.553 44.1725 17.8537 44.7232 17.3048C45.274 16.7559 45.9757 16.3821 46.7396 16.2307C47.5035 16.0793 48.2953 16.157 49.0148 16.454C49.7344 16.7511 50.3494 17.2541 50.7822 17.8995C51.2149 18.5449 51.4458 19.3037 51.4458 20.0799C51.4444 21.1204 51.0291 22.1178 50.2909 22.8535C49.5526 23.5892 48.5518 24.0032 47.5078 24.0046ZM47.5078 16.9351C46.8836 16.9351 46.2734 17.1196 45.7544 17.4652C45.2354 17.8108 44.8309 18.3021 44.592 18.8768C44.3532 19.4516 44.2907 20.084 44.4125 20.6941C44.5343 21.3043 44.835 21.8647 45.2764 22.3046C45.7178 22.7444 46.2802 23.044 46.8924 23.1653C47.5046 23.2866 48.1392 23.2242 48.7159 22.9861C49.2925 22.748 49.7854 22.3448 50.1321 21.8275C50.4789 21.3102 50.6639 20.702 50.6638 20.0799C50.663 19.246 50.3302 18.4465 49.7385 17.8569C49.1468 17.2673 48.3446 16.9358 47.5078 16.9351Z" fill="#F4B425"/>
</g>
<path opacity="0.1" d="M44.2037 25.7188C44.4253 25.6437 44.6552 25.2865 44.8355 24.9262C45.1918 25.1214 45.5686 25.2767 45.9592 25.3894C45.8166 25.7045 45.7751 26.0558 45.8404 26.3953C46.0828 26.9044 47.5068 26.9044 47.5068 26.9044C47.5068 26.9044 48.9189 26.9044 49.1719 26.3953C49.2422 26.0563 49.2018 25.7038 49.0567 25.3894C49.4472 25.2767 49.824 25.1214 50.1803 24.9262C50.3615 25.2852 50.5888 25.6419 50.8099 25.721C51.3416 25.91 52.3491 24.9072 52.3491 24.9072C52.3491 24.9072 53.3482 23.9119 53.1657 23.3727C53.0908 23.152 52.7319 22.9237 52.3708 22.7435C52.567 22.3884 52.7229 22.0127 52.8356 21.6232C53.1518 21.7657 53.5046 21.8071 53.8453 21.7416C54.3562 21.5 54.3562 20.0813 54.3562 20.0813C54.3562 20.0813 54.3562 18.6736 53.8453 18.4206C53.505 18.3515 53.1514 18.392 52.8356 18.5362C52.7229 18.1469 52.567 17.7713 52.3708 17.4164C52.7315 17.2363 53.089 17.0093 53.1683 16.789C53.3593 16.2591 52.3522 15.2545 52.3522 15.2545C52.3522 15.2545 52.3079 15.2104 52.2321 15.1415C51.6027 16.5111 50.7846 17.7864 49.8015 18.9306C50.0536 19.4274 50.1361 19.9927 50.0364 20.5405C49.9367 21.0883 49.6603 21.5887 49.2491 21.9657C48.838 22.3426 48.3146 22.5754 47.7585 22.6288C47.2024 22.6822 46.6441 22.5531 46.1683 22.2613C44.966 23.1322 43.6966 23.9074 42.3721 24.5795C42.5316 24.7729 42.6636 24.905 42.6636 24.905C42.6636 24.905 43.661 25.9007 44.2037 25.7188Z" fill="#6F224C"/>
<path d="M43.92 66.7964H59.0921C59.5753 66.7965 60.0388 66.9879 60.3805 67.3285C60.7223 67.669 60.9143 68.1309 60.9144 68.6126V74.4721C60.9144 74.7106 60.8673 74.9468 60.7757 75.1671C60.6841 75.3874 60.5499 75.5876 60.3806 75.7562C60.2114 75.9248 60.0105 76.0586 59.7894 76.1498C59.5683 76.241 59.3314 76.2879 59.0921 76.2879H51.6042L49.283 79.0896V76.2879H43.92C43.6808 76.2879 43.4438 76.241 43.2228 76.1498C43.0017 76.0586 42.8008 75.9248 42.6316 75.7562C42.4624 75.5876 42.3283 75.3874 42.2367 75.1671C42.1452 74.9468 42.0981 74.7106 42.0981 74.4721V68.6126C42.0981 68.131 42.2901 67.6691 42.6317 67.3285C42.9734 66.9879 43.4368 66.7965 43.92 66.7964Z" fill="#FC8B3F"/>
<path d="M51.2294 69.6105C50.6725 69.2886 49.8502 69.6247 49.1865 70.3656C48.5218 69.6247 47.7008 69.2886 47.143 69.6105C46.4394 70.0181 46.4297 71.3105 47.1213 72.4975C47.6769 73.4513 48.513 74.0355 49.1865 74.0218C49.8604 74.0355 50.696 73.4513 51.2512 72.4975C51.9432 71.3097 51.9335 70.0172 51.2294 69.6105Z" fill="white"/>
<path d="M53.4372 71.9725V73.5724H55.1602V80.5874H57.1539V71.9725H53.4372Z" fill="white"/>
<path opacity="0.1" d="M60.9143 68.6126C60.9142 68.1309 60.7222 67.669 60.3805 67.3285C60.0387 66.9879 59.5753 66.7965 59.092 66.7964H55.9759C56.2085 72.1093 51.235 74.8819 46.8633 76.2879H49.2833V79.0896L51.6046 76.2879H59.0924C59.3317 76.2879 59.5687 76.241 59.7898 76.1498C60.0109 76.0586 60.2118 75.9248 60.381 75.7562C60.5502 75.5876 60.6845 75.3874 60.7761 75.1671C60.8676 74.9468 60.9148 74.7106 60.9148 74.4721L60.9143 68.6126Z" fill="#6F224C"/>
<path d="M60.2979 22.6339H75.4695C75.9527 22.6339 76.4162 22.8252 76.7581 23.1657C77.0999 23.5062 77.292 23.968 77.2922 24.4496V30.311C77.292 30.7926 77.0999 31.2545 76.7581 31.595C76.4162 31.9355 75.9527 32.1267 75.4695 32.1267H67.9816L65.6603 34.9289V32.1267H60.2992C60.0598 32.1269 59.8227 32.0801 59.6015 31.9889C59.3802 31.8978 59.1792 31.764 59.0098 31.5954C58.8404 31.4268 58.706 31.2266 58.6142 31.0062C58.5225 30.7858 58.4752 30.5496 58.4751 30.311V24.4496C58.4752 24.2111 58.5223 23.975 58.614 23.7547C58.7056 23.5343 58.8399 23.3341 59.0092 23.1655C59.1784 22.9969 59.3794 22.8632 59.6005 22.772C59.8216 22.6808 60.0586 22.6339 60.2979 22.6339Z" fill="#FC8B3F"/>
<path d="M69.8147 27.6361V29.236H71.5376V36.251H73.5314V27.6361H69.8147Z" fill="white"/>
<path d="M67.2165 25.8234H64.1261C63.9462 25.8235 63.7738 25.8947 63.6466 26.0215C63.5194 26.1483 63.4479 26.3201 63.4478 26.4994V28.6807C63.4478 28.7695 63.4653 28.8574 63.4994 28.9395C63.5335 29.0215 63.5834 29.096 63.6464 29.1588C63.7094 29.2216 63.7842 29.2713 63.8665 29.3053C63.9488 29.3393 64.037 29.3568 64.1261 29.3568H65.6352L66.4987 30.3998V29.3568H67.2165C67.3056 29.3568 67.3939 29.3394 67.4762 29.3055C67.5586 29.2715 67.6334 29.2217 67.6964 29.1589C67.7595 29.0961 67.8095 29.0216 67.8436 28.9396C67.8777 28.8575 67.8953 28.7696 67.8953 28.6807V26.4994C67.8953 26.4106 67.8777 26.3226 67.8436 26.2406C67.8095 26.1585 67.7595 26.084 67.6964 26.0212C67.6334 25.9584 67.5586 25.9086 67.4762 25.8747C67.3939 25.8407 67.3056 25.8233 67.2165 25.8234Z" fill="white"/>
<path opacity="0.1" d="M77.2898 24.4496C77.2896 23.968 77.0974 23.5062 76.7556 23.1657C76.4138 22.8252 75.9503 22.6339 75.467 22.6339H72.3514C72.5835 27.9473 67.6105 30.7194 63.2388 32.1254H65.6588V34.9276L67.98 32.1254H75.4679C75.9508 32.1252 76.4139 31.934 76.7555 31.5938C77.0971 31.2536 77.2892 30.7923 77.2898 30.311V24.4496Z" fill="#6F224C"/>
<path d="M172.275 54.448C172.429 48.3012 167.554 43.1936 161.386 43.0398C155.219 42.886 150.094 47.7443 149.94 53.8911C149.785 60.0379 154.66 65.1455 160.828 65.2993C166.995 65.4531 172.12 60.5948 172.275 54.448Z" fill="#FC8B3F"/>
<path d="M166.666 49.4097C164.588 51.2766 162.509 53.1441 160.43 55.0123C159.106 54.3511 157.782 53.6901 156.459 53.0292C155.651 52.6256 154.939 53.8346 155.75 54.2391C157.23 54.9783 158.71 55.717 160.191 56.4553C160.326 56.53 160.481 56.5597 160.634 56.5401C160.788 56.5204 160.93 56.4525 161.042 56.3462C163.249 54.3651 165.455 52.383 167.662 50.4001C168.335 49.7943 167.338 48.8065 166.666 49.4097Z" fill="white"/>
<path d="M161.107 45.4863C161.428 45.4863 161.687 45.2276 161.687 44.9083C161.687 44.5891 161.428 44.3303 161.107 44.3303C160.787 44.3303 160.527 44.5891 160.527 44.9083C160.527 45.2276 160.787 45.4863 161.107 45.4863Z" fill="#F46C0F"/>
<path d="M161.687 63.5548C161.687 63.6692 161.653 63.781 161.589 63.8762C161.526 63.9714 161.435 64.0456 161.329 64.0895C161.223 64.1333 161.107 64.1449 160.994 64.1227C160.881 64.1004 160.778 64.0454 160.697 63.9645C160.616 63.8837 160.56 63.7807 160.538 63.6685C160.516 63.5563 160.527 63.44 160.571 63.3344C160.615 63.2287 160.689 63.1384 160.785 63.0749C160.88 63.0114 160.993 62.9776 161.107 62.9777C161.261 62.9778 161.408 63.0386 161.517 63.1468C161.625 63.255 161.687 63.4017 161.687 63.5548Z" fill="#F46C0F"/>
<path d="M170.462 54.8096C170.348 54.8097 170.235 54.7759 170.14 54.7124C170.045 54.649 169.97 54.5588 169.926 54.4532C169.882 54.3476 169.871 54.2314 169.893 54.1192C169.915 54.0071 169.97 53.9041 170.051 53.8232C170.132 53.7423 170.236 53.6871 170.348 53.6648C170.461 53.6424 170.577 53.6537 170.683 53.6974C170.789 53.7411 170.88 53.8151 170.944 53.9101C171.008 54.0051 171.042 54.1168 171.042 54.2311C171.042 54.307 171.027 54.3822 170.998 54.4524C170.969 54.5225 170.926 54.5863 170.872 54.64C170.818 54.6937 170.755 54.7363 170.684 54.7654C170.614 54.7945 170.538 54.8095 170.462 54.8096Z" fill="#F46C0F"/>
<path d="M151.751 54.8096C151.637 54.8098 151.524 54.776 151.429 54.7126C151.333 54.6492 151.259 54.5591 151.215 54.4535C151.171 54.3479 151.159 54.2317 151.181 54.1195C151.204 54.0073 151.259 53.9043 151.34 53.8233C151.421 53.7424 151.524 53.6872 151.637 53.6648C151.749 53.6424 151.866 53.6537 151.972 53.6973C152.078 53.741 152.169 53.815 152.232 53.91C152.296 54.005 152.33 54.1168 152.33 54.2311C152.33 54.307 152.316 54.3822 152.287 54.4523C152.258 54.5225 152.215 54.5862 152.161 54.64C152.107 54.6937 152.043 54.7363 151.973 54.7654C151.903 54.7945 151.827 54.8095 151.751 54.8096Z" fill="#F46C0F"/>
<path d="M166.331 46.475C166.273 46.5737 166.187 46.653 166.084 46.703C165.981 46.7529 165.865 46.7713 165.751 46.7557C165.638 46.7402 165.531 46.6914 165.446 46.6155C165.36 46.5396 165.298 46.4401 165.269 46.3295C165.24 46.219 165.245 46.1023 165.282 45.9942C165.32 45.8862 165.389 45.7917 165.48 45.7226C165.571 45.6535 165.681 45.613 165.796 45.6061C165.91 45.5993 166.024 45.6265 166.123 45.6842C166.189 45.7224 166.247 45.7732 166.293 45.8337C166.339 45.8942 166.373 45.9631 166.392 46.0366C166.411 46.1101 166.416 46.1866 166.405 46.2619C166.395 46.3371 166.37 46.4095 166.331 46.475Z" fill="#F46C0F"/>
<path d="M156.884 62.5719C156.826 62.6705 156.74 62.7498 156.637 62.7998C156.534 62.8497 156.418 62.868 156.304 62.8524C156.191 62.8368 156.084 62.7879 155.999 62.712C155.913 62.6361 155.852 62.5365 155.823 62.4259C155.794 62.3153 155.798 62.1986 155.836 62.0906C155.873 61.9826 155.942 61.8881 156.033 61.819C156.125 61.75 156.235 61.7096 156.349 61.7028C156.464 61.696 156.578 61.7233 156.677 61.781C156.743 61.8194 156.8 61.8702 156.846 61.9307C156.892 61.9912 156.926 62.0602 156.945 62.1336C156.964 62.2071 156.969 62.2836 156.958 62.3588C156.948 62.434 156.923 62.5064 156.884 62.5719Z" fill="#F46C0F"/>
<path d="M168.888 59.4372C168.789 59.3794 168.71 59.2937 168.66 59.1909C168.61 59.0881 168.591 58.9727 168.607 58.8595C168.623 58.7463 168.672 58.6403 168.748 58.5548C168.824 58.4693 168.924 58.4082 169.035 58.3793C169.146 58.3504 169.263 58.3549 169.371 58.3922C169.479 58.4296 169.574 58.4981 169.644 58.5891C169.713 58.6802 169.754 58.7897 169.76 58.9038C169.767 59.0179 169.74 59.1314 169.682 59.2301C169.644 59.2957 169.593 59.3531 169.532 59.399C169.471 59.4449 169.402 59.4784 169.328 59.4977C169.255 59.5169 169.178 59.5215 169.102 59.5111C169.027 59.5007 168.954 59.4756 168.888 59.4372Z" fill="#F46C0F"/>
<path d="M152.739 50.0234C152.64 49.9659 152.56 49.8803 152.51 49.7776C152.459 49.6748 152.441 49.5595 152.456 49.4462C152.471 49.3329 152.52 49.2267 152.596 49.141C152.672 49.0553 152.772 48.9941 152.883 48.965C152.994 48.9359 153.111 48.9402 153.22 48.9774C153.328 49.0147 153.423 49.0832 153.492 49.1742C153.562 49.2653 153.603 49.3748 153.61 49.4889C153.617 49.6031 153.589 49.7167 153.531 49.8155C153.454 49.9476 153.327 50.0437 153.178 50.0827C153.03 50.1217 152.872 50.1004 152.739 50.0234Z" fill="#F46C0F"/>
<path d="M155.884 46.4751C155.941 46.5737 156.028 46.653 156.131 46.703C156.234 46.7529 156.35 46.7712 156.463 46.7556C156.577 46.74 156.683 46.6911 156.769 46.6152C156.855 46.5393 156.916 46.4397 156.945 46.3291C156.974 46.2185 156.97 46.1018 156.932 45.9938C156.894 45.8858 156.826 45.7913 156.734 45.7222C156.643 45.6532 156.533 45.6128 156.418 45.606C156.304 45.5992 156.19 45.6265 156.091 45.6842C156.025 45.7225 155.968 45.7734 155.921 45.8338C155.875 45.8943 155.842 45.9633 155.823 46.0368C155.803 46.1102 155.799 46.1868 155.809 46.262C155.82 46.3372 155.845 46.4096 155.884 46.4751Z" fill="#F46C0F"/>
<path d="M165.33 62.572C165.388 62.6707 165.474 62.75 165.577 62.7999C165.68 62.8498 165.796 62.8681 165.91 62.8525C166.023 62.8369 166.13 62.788 166.216 62.7121C166.301 62.6362 166.363 62.5367 166.392 62.4261C166.421 62.3154 166.416 62.1987 166.378 62.0907C166.341 61.9827 166.272 61.8882 166.181 61.8192C166.089 61.7501 165.979 61.7097 165.865 61.7029C165.75 61.6962 165.636 61.7234 165.537 61.7812C165.471 61.8194 165.414 61.8702 165.368 61.9307C165.322 61.9912 165.288 62.0602 165.269 62.1336C165.25 62.2071 165.245 62.2837 165.256 62.3589C165.266 62.4341 165.291 62.5066 165.33 62.572Z" fill="#F46C0F"/>
<path d="M153.325 59.4372C153.423 59.3794 153.503 59.2938 153.553 59.191C153.603 59.0883 153.621 58.9731 153.605 58.86C153.59 58.7469 153.541 58.641 153.465 58.5557C153.388 58.4703 153.289 58.4093 153.178 58.3804C153.067 58.3515 152.95 58.356 152.842 58.3933C152.734 58.4305 152.639 58.499 152.57 58.5899C152.5 58.6808 152.46 58.7902 152.453 58.9041C152.446 59.0181 152.473 59.1315 152.531 59.2301C152.569 59.2958 152.62 59.3532 152.681 59.3992C152.741 59.4451 152.811 59.4787 152.884 59.4979C152.958 59.5171 153.035 59.5217 153.111 59.5113C153.186 59.5009 153.259 59.4757 153.325 59.4372Z" fill="#F46C0F"/>
<path d="M169.475 50.0235C169.574 49.9658 169.654 49.8801 169.704 49.7774C169.754 49.6746 169.773 49.5593 169.757 49.4461C169.742 49.3329 169.693 49.2268 169.617 49.1413C169.541 49.0557 169.441 48.9946 169.33 48.9655C169.219 48.9365 169.102 48.9408 168.994 48.9781C168.885 49.0153 168.79 49.0837 168.721 49.1747C168.651 49.2656 168.611 49.375 168.604 49.4891C168.597 49.6032 168.624 49.7167 168.681 49.8155C168.759 49.9479 168.886 50.0442 169.035 50.0832C169.184 50.1222 169.342 50.1007 169.475 50.0235Z" fill="#F46C0F"/>
<path d="M153.158 119.11C150.97 117.262 147.729 122.276 147.078 124.851C146.729 122.776 146.256 120.724 145.66 118.705C146.884 118.767 151.238 113.698 148.925 112.443C147.06 111.43 145.456 115.394 145.281 117.487C144.734 115.801 144.078 114.152 143.317 112.551C144.965 112.099 148.797 103.976 145.326 103.157C142.691 102.536 141.924 107.558 142.262 110.513C141.484 109.122 140.594 107.797 139.6 106.551C140.926 105.525 142.724 98.5072 139.746 98.342C137.429 98.2131 137.522 102.535 138.246 105.007C137.673 104.402 137.068 103.829 136.433 103.291C136.98 101.577 129.587 93.7625 127.238 97.1891C125.003 100.453 133.957 104.252 136.029 103.631C136.816 104.294 137.555 105.009 138.243 105.773C136.006 104.822 131.296 104.286 131.283 106.663C131.267 109.56 138.272 108.209 139.275 106.986C140.345 108.347 141.29 109.8 142.101 111.328C139.748 109.788 134.48 108.218 133.979 110.926C133.381 114.162 141.314 114.111 142.936 112.984C143.566 114.335 144.12 115.719 144.596 117.131C143.037 115.68 140.181 114.12 139.39 115.762C138.375 117.863 143.599 119.325 145.181 118.982C145.669 120.637 146.061 122.315 146.375 123.986C144.768 121.71 141.515 118.94 140.06 120.835C138.15 123.325 144.851 126.693 146.785 126.487C147.08 128.564 147.262 130.655 147.328 132.752C147.339 133.1 147.882 133.101 147.871 132.752C147.802 130.58 147.611 128.414 147.3 126.264C148.836 126.684 155.789 121.333 153.158 119.11Z" fill="#B6CDEF"/>
<path d="M166.676 100.918C167.392 99.7661 168.149 98.6277 168.948 97.5207C170.986 97.8179 179.109 92.0254 176.17 89.3031C173.166 86.5239 167.814 95.4502 168.522 97.2072C167.972 97.9755 167.445 98.7606 166.933 99.5519C167.346 97.1003 167.074 93.6142 165.027 93.8305C162.166 94.1317 164.216 100.79 165.55 101.754C165.234 102.278 164.924 102.8 164.62 103.323C163.976 104.427 163.37 105.552 162.789 106.689C163.135 103.963 162.445 99.1987 159.975 99.7762C156.704 100.541 160.407 108.313 161.891 108.51C160.933 110.52 160.069 112.569 159.298 114.657C159.343 111.292 157.726 105.336 154.741 106.459C150.832 107.928 156.723 116.964 158.528 116.836C157.836 118.895 157.231 120.98 156.712 123.092C156.25 120.832 154.671 117.602 152.928 118.579C150.628 119.867 154.747 124.714 156.247 125.087C155.36 129.119 154.767 133.21 154.474 137.328C154.45 137.673 154.985 137.765 155.01 137.416C155.304 133.291 155.902 129.194 156.8 125.157C158.211 125.759 164.694 123.991 163.468 121.536C162.454 119.505 158.639 121.95 157.139 123.697C157.683 121.454 158.322 119.238 159.059 117.049C161.243 118.141 170.783 116.965 169.56 113.156C168.534 109.972 162.459 112.648 159.832 114.87C160.597 112.805 161.451 110.773 162.395 108.773C164.162 109.84 171.744 109.855 171.168 106.708C170.686 104.074 165.635 105.521 163.254 107.011C163.774 105.982 164.311 104.961 164.881 103.953C165.246 103.307 165.628 102.657 166.015 102.01C167.044 103.23 174.428 104.297 174.262 101.293C174.118 98.7006 168.726 99.7347 166.676 100.918Z" fill="#B6CDEF"/>
<path d="M161.758 146.565C161.677 147.073 161.42 147.536 161.032 147.875C160.644 148.213 160.15 148.406 159.634 148.42H143.595C143.083 148.408 142.592 148.215 142.21 147.874C141.828 147.534 141.581 147.069 141.513 146.563L139.585 129.367C139.554 129.132 139.574 128.894 139.644 128.668C139.714 128.442 139.832 128.233 139.99 128.057C140.149 127.881 140.343 127.741 140.561 127.647C140.779 127.553 141.015 127.507 141.252 127.512H162.448C162.684 127.506 162.919 127.551 163.135 127.645C163.352 127.739 163.545 127.88 163.7 128.057C163.856 128.235 163.97 128.444 164.034 128.67C164.099 128.897 164.113 129.135 164.074 129.367L161.758 146.565Z" fill="#FC8B3F"/>
<path opacity="0.1" d="M162.448 127.508H158.597C159.177 133.49 157.94 142.419 147.6 148.418H159.636C160.151 148.404 160.646 148.211 161.034 147.872C161.422 147.534 161.678 147.07 161.76 146.563L164.074 129.359C164.112 129.127 164.098 128.889 164.033 128.663C163.968 128.437 163.854 128.228 163.698 128.052C163.543 127.875 163.351 127.734 163.134 127.64C162.918 127.546 162.684 127.501 162.448 127.508Z" fill="#114068"/>
<path d="M166.539 129.144C166.54 129.464 166.476 129.78 166.354 130.076C166.231 130.371 166.051 130.639 165.825 130.865C165.598 131.091 165.329 131.27 165.033 131.393C164.737 131.515 164.419 131.578 164.099 131.578H139.566C139.245 131.578 138.928 131.515 138.631 131.393C138.335 131.27 138.066 131.091 137.839 130.865C137.613 130.639 137.433 130.371 137.31 130.076C137.188 129.78 137.124 129.464 137.125 129.144C137.124 128.825 137.188 128.509 137.31 128.213C137.433 127.918 137.613 127.65 137.839 127.424C138.066 127.198 138.335 127.019 138.631 126.897C138.928 126.774 139.245 126.711 139.566 126.711H164.099C164.419 126.711 164.737 126.774 165.033 126.897C165.329 127.019 165.598 127.198 165.825 127.424C166.051 127.65 166.231 127.918 166.354 128.213C166.476 128.509 166.539 128.825 166.539 129.144Z" fill="#F46C0F"/>
<path d="M40.0034 147.623C39.6912 147.623 39.3797 147.593 39.073 147.535C35.7017 146.9 33.6166 142.914 34.4243 138.648C35.1571 134.782 37.9529 131.976 41.0725 131.976C41.3848 131.977 41.6963 132.006 42.003 132.065C45.3752 132.699 47.4603 136.686 46.6521 140.951C45.9188 144.817 43.1226 147.623 40.0034 147.623ZM41.0703 134.141C39.0264 134.141 37.0854 136.253 36.555 139.052C35.9693 142.143 37.2785 144.997 39.4739 145.411C39.6485 145.444 39.8257 145.46 40.0034 145.46C42.0468 145.46 43.9879 143.35 44.5183 140.551C45.1045 137.456 43.7952 134.605 41.5998 134.192C41.4253 134.159 41.248 134.142 41.0703 134.141Z" fill="#FC8B3F"/>
<path d="M39.8228 130.152H23.5338C23.5338 130.152 21.3627 142.886 27.8023 148.417H35.556C41.9938 142.886 39.8228 130.152 39.8228 130.152Z" fill="#FC8B3F"/>
<path opacity="0.1" d="M32.0712 148.417H35.5533C41.9928 142.886 39.8218 130.152 39.8218 130.152H35.4886C34.2201 134.866 31.3893 142.138 25.5195 145.626C26.1166 146.677 26.8873 147.621 27.7991 148.417H32.0681H32.0712Z" fill="#114068"/>
<path d="M29.1476 128.818C29.1476 128.818 26.9212 127.338 27.4608 125.321C28.0005 123.305 30.6164 119.649 28.2623 117.185C28.2623 117.185 32.0492 119.202 30.8348 122.093C29.6203 124.985 28.1356 126.196 29.1476 128.818Z" fill="#CEDDF4"/>
<path d="M34.9257 126.022C34.9257 126.022 32.6993 124.542 33.2385 122.525C33.7777 120.509 36.3945 116.852 34.0405 114.389C34.0405 114.389 37.8269 116.407 36.6125 119.298C35.398 122.189 33.9142 123.4 34.9257 126.022Z" fill="#CEDDF4"/>
<path d="M39.8223 130.152C39.8223 131.038 36.1502 131.757 31.6211 131.757C27.0921 131.757 23.4199 131.038 23.4199 130.152C23.4199 129.265 27.0921 128.548 31.6211 128.548C36.1502 128.548 39.8223 129.266 39.8223 130.152Z" fill="#F46C0F"/>
<path d="M24.5264 130.954C25.9442 131.433 28.5875 131.757 31.6212 131.757C34.6549 131.757 37.2978 131.433 38.7161 130.954C37.2983 130.476 34.6554 130.152 31.6212 130.152C28.5871 130.152 25.9451 130.476 24.5264 130.954Z" fill="#AF622E"/>
<path d="M117.704 10.7249L116.36 6.19043L115.015 10.7249L110.857 12.1498L115.015 13.5756L116.36 18.1092L117.704 13.5756L121.862 12.1498L117.704 10.7249Z" fill="#E3EDFC"/>
<path d="M124.332 60.735L123.42 57.6608L122.508 60.735L119.688 61.7015L122.508 62.6681L123.42 65.7419L124.332 62.6681L127.151 61.7015L124.332 60.735Z" fill="white"/>
<path d="M138.386 56.3674L137.911 54.7632L137.435 56.3674L135.964 56.8712L137.435 57.3759L137.911 58.9806L138.386 57.3759L139.857 56.8712L138.386 56.3674Z" fill="white"/>
<path d="M167.472 78.195L166.542 75.051L165.612 78.195L162.728 79.1832L165.612 80.171L166.542 83.3154L167.472 80.171L170.355 79.1832L167.472 78.195Z" fill="#E3EDFC"/>
<path d="M147.906 91.1661L146.851 87.6084L145.796 91.1661L142.534 92.2828L145.796 93.4018L146.851 96.9577L147.906 93.4018L151.166 92.2828L147.906 91.1661Z" fill="white"/>
<path d="M123.895 88.2672L123.42 86.663L122.945 88.2672L121.474 88.7719L122.945 89.2766L123.42 90.8808L123.895 89.2766L125.366 88.7719L123.895 88.2672Z" fill="white"/>
<path d="M156.918 33.9089L156.385 32.1086L155.851 33.9089L154.2 34.4746L155.851 35.0398L156.385 36.8396L156.918 35.0398L158.569 34.4746L156.918 33.9089Z" fill="#E3EDFC"/>
<path d="M54.4225 1.80032L53.8908 0.000488281L53.3564 1.80032L51.7056 2.3664L53.3564 2.93161L53.8908 4.73188L54.4225 2.93161L56.0733 2.3664L54.4225 1.80032Z" fill="#E3EDFC"/>
<path d="M140.561 4.60819L139.63 1.46423L138.7 4.60819L135.816 5.59642L138.7 6.58465L139.63 9.72861L140.561 6.58465L143.444 5.59642L140.561 4.60819Z" fill="#E3EDFC"/>
<path d="M72.1477 11.0348L71.2173 7.89038L70.2868 11.0348L67.4033 12.023L70.2868 13.0112L71.2173 16.1552L72.1477 13.0112L75.0312 12.023L72.1477 11.0348Z" fill="#E3EDFC"/>
<path d="M29.2307 15.5896L28.699 13.7898L28.1651 15.5896L26.5146 16.1557L28.1651 16.7209L28.699 18.5207L29.2307 16.7209L30.8811 16.1557L29.2307 15.5896Z" fill="#E3EDFC"/>
<path d="M11.9282 51.4585L10.5844 46.9241L9.23921 51.4585L5.08057 52.8835L9.23921 54.3088L10.5839 58.8424L11.9278 54.3088L16.0855 52.8835L11.9282 51.4585Z" fill="#E3EDFC"/>
<path d="M63.6217 44.7736L62.1547 39.8254L60.6864 44.7736L56.1489 46.3284L60.6864 47.8849L62.1547 52.8305L63.6217 47.8849L68.1588 46.3284L63.6217 44.7736Z" fill="white"/>
<path d="M24.3318 73.8893L23.42 70.8151L22.5072 73.8893L19.688 74.8558L22.5072 75.8224L23.42 78.8966L24.3318 75.8224L27.151 74.8558L24.3318 73.8893Z" fill="white"/>
<path d="M58.951 88.2672L58.4752 86.663L57.9993 88.2672L56.5283 88.7719L57.9993 89.2766L58.4752 90.8808L58.951 89.2766L60.422 88.7719L58.951 88.2672Z" fill="white"/>
<path d="M47.2971 109.755L46.3853 106.68L45.473 109.755L42.6533 110.72L45.473 111.688L46.3853 114.762L47.2971 111.688L50.1164 110.72L47.2971 109.755Z" fill="white"/>
<path d="M4.74873 103.977L3.81829 100.832L2.88784 103.977L0.00390625 104.965L2.88784 105.953L3.81829 109.097L4.74873 105.953L7.63134 104.965L4.74873 103.977Z" fill="#E3EDFC"/>
<path d="M8.18427 117.841L7.65259 116.04L7.11869 117.841L5.46826 118.406L7.11869 118.971L7.65259 120.771L8.18427 118.971L9.83471 118.406L8.18427 117.841Z" fill="#E3EDFC"/>
<path d="M181.117 113.773L180.187 110.629L179.256 113.773L176.373 114.762L179.256 115.749L180.187 118.894L181.117 115.749L184 114.762L181.117 113.773Z" fill="#E3EDFC"/>
</g>
<defs>
<clipPath id="clip0_155_8545">
<rect width="184" height="156" fill="white"/>
</clipPath>
</defs>
</svg>
