<svg width="24" height="24" viewBox="0 0 24 24" fill="none" xmlns="http://www.w3.org/2000/svg">
<path d="M14.7366 7.04593C13.8645 6.71416 12.9437 6.53992 12 6.53992C9.3525 6.53992 6.885 7.9114 5.1675 10.2851C4.4925 11.2148 4.4925 12.7775 5.1675 13.7072C5.50858 14.1786 5.87924 14.6105 6.27501 14.9999M17.4936 8.77215C17.9769 9.21699 18.4257 9.72294 18.8325 10.2851C19.5075 11.2148 19.5075 12.7775 18.8325 13.7072C17.115 16.0809 14.6475 17.4524 12 17.4524C10.9608 17.4524 9.94924 17.2411 8.99994 16.8408" stroke="black" stroke-linecap="round" stroke-linejoin="round"/>
<path d="M14.25 12C14.25 13.2444 13.2444 14.25 12 14.25M13.5747 10.3916C13.1691 9.99449 12.6136 9.75 12 9.75C10.7556 9.75 9.75 10.7556 9.75 12C9.75 12.547 9.94429 13.0478 10.2678 13.4374" stroke="black" stroke-linecap="round" stroke-linejoin="round"/>
<path d="M4.5 18.75L19.5 5.02502" stroke="black" stroke-linecap="round"/>
</svg>
